<?xml version="1.0" encoding="utf-8"?>
<!-- Generator: Adobe Illustrator 27.5.0, SVG Export Plug-In . SVG Version: 6.00 Build 0)  -->
<svg version="1.1" xmlns="http://www.w3.org/2000/svg" xmlns:xlink="http://www.w3.org/1999/xlink" x="0px" y="0px"
	 viewBox="0 0 750 500" style="enable-background:new 0 0 750 500;" xml:space="preserve">
<g id="Background_Complete">
	<g>
		<g>
			<g>
				<g>
					<rect x="29.035" y="142.111" style="fill:#FAFAFA;" width="156.202" height="87.341"/>
				</g>
			</g>
			<g>
				<g>
					<g>
						<path style="fill:#E0E0E0;" d="M185.237,229.452c0,0-0.014-0.54-0.021-1.571c-0.005-1.039-0.012-2.567-0.022-4.565
							c-0.011-4.009-0.028-9.897-0.05-17.462c-0.025-15.119-0.061-36.93-0.106-63.743l0.199,0.199
							c-41.669,0.016-96.415,0.038-156.19,0.061h-0.012l0.26-0.26c-0.006,30.885-0.012,60.426-0.017,87.341l-0.243-0.243
							c45.71,0.048,84.729,0.089,112.331,0.118c13.812,0.028,24.766,0.051,32.278,0.066c3.752,0.013,6.642,0.023,8.605,0.03
							c0.973,0.006,1.715,0.011,2.224,0.015C184.975,229.442,185.237,229.452,185.237,229.452s-0.243,0.01-0.734,0.015
							c-0.503,0.003-1.235,0.008-2.196,0.015c-1.952,0.007-4.826,0.017-8.556,0.03c-7.499,0.015-18.434,0.038-32.222,0.066
							c-27.642,0.029-66.716,0.07-112.493,0.118l-0.243,0v-0.243c-0.005-26.916-0.011-56.456-0.017-87.341v-0.26h0.26h0.012
							c59.775,0.023,114.521,0.045,156.19,0.061l0.2,0l0,0.199c-0.044,26.865-0.081,48.718-0.106,63.866
							c-0.022,7.546-0.039,13.419-0.05,17.418c-0.01,1.982-0.017,3.497-0.022,4.528C185.251,228.94,185.237,229.452,185.237,229.452
							z"/>
					</g>
				</g>
			</g>
		</g>
		<g>
			<g>
				<rect x="48.125" y="162.928" style="fill:#E0E0E0;" width="22.083" height="22.083"/>
			</g>
		</g>
		<g>
			<g>
				<g>
					<path style="fill:#E0E0E0;" d="M100.536,166.031c0,0.144-5.154,0.26-11.51,0.26c-6.359,0-11.511-0.117-11.511-0.26
						c0-0.144,5.153-0.26,11.511-0.26C95.382,165.771,100.536,165.887,100.536,166.031z"/>
				</g>
			</g>
		</g>
		<g>
			<g>
				<g>
					<path style="fill:#E0E0E0;" d="M174.074,173.969c0,0.144-21.617,0.26-48.277,0.26c-26.669,0-48.282-0.117-48.282-0.26
						c0-0.144,21.613-0.26,48.282-0.26C152.456,173.709,174.074,173.826,174.074,173.969z"/>
				</g>
			</g>
		</g>
		<g>
			<g>
				<g>
					<path style="fill:#E0E0E0;" d="M141.586,182.876c0,0.144-14.204,0.26-31.722,0.26c-17.524,0-31.725-0.117-31.725-0.26
						c0-0.144,14.201-0.26,31.725-0.26C127.382,182.615,141.586,182.732,141.586,182.876z"/>
				</g>
			</g>
		</g>
		<g>
			<g>
				<path style="fill:#E0E0E0;" d="M162.113,217.876h-106.7c-5.652,0-10.235-4.582-10.235-10.235l0,0
					c0-5.652,4.582-10.235,10.235-10.235h106.7c5.652,0,10.235,4.582,10.235,10.235l0,0
					C172.348,213.294,167.765,217.876,162.113,217.876z"/>
			</g>
		</g>
		<g>
			<g>
				<path style="fill:#FFFFFF;" d="M89.148,209.077H86.53l-0.5,1.208h-1.337l2.514-5.64h1.289l2.521,5.64h-1.37L89.148,209.077z
					 M88.737,208.086l-0.894-2.159l-0.894,2.159H88.737z"/>
			</g>
			<g>
				<path style="fill:#FFFFFF;" d="M96.497,206.693c0,1.257-0.943,2.038-2.449,2.038h-1.136v1.555h-1.305v-5.64h2.441
					C95.554,204.646,96.497,205.428,96.497,206.693z M95.176,206.693c0-0.62-0.403-0.983-1.201-0.983h-1.063v1.958h1.063
					C94.773,207.667,95.176,207.305,95.176,206.693z"/>
			</g>
			<g>
				<path style="fill:#FFFFFF;" d="M102.315,206.693c0,1.257-0.942,2.038-2.449,2.038H98.73v1.555h-1.306v-5.64h2.441
					C101.372,204.646,102.315,205.428,102.315,206.693z M100.993,206.693c0-0.62-0.403-0.983-1.2-0.983H98.73v1.958h1.063
					C100.591,207.667,100.993,207.305,100.993,206.693z"/>
			</g>
			<g>
				<path style="fill:#FFFFFF;" d="M103.243,204.646h1.306v4.576h2.828v1.063h-4.133V204.646z"/>
			</g>
			<g>
				<path style="fill:#FFFFFF;" d="M110.237,208.288v1.998h-1.306v-2.014l-2.183-3.626h1.386l1.506,2.505l1.507-2.505h1.281
					L110.237,208.288z"/>
			</g>
			<g>
				<path style="fill:#FFFFFF;" d="M120.43,204.646v5.64h-1.072l-2.812-3.424v3.424h-1.289v-5.64h1.08l2.804,3.424v-3.424H120.43z"
					/>
			</g>
			<g>
				<path style="fill:#FFFFFF;" d="M121.414,207.466c0-1.676,1.305-2.917,3.086-2.917c1.772,0,3.085,1.233,3.085,2.917
					c0,1.684-1.313,2.917-3.085,2.917C122.719,210.383,121.414,209.142,121.414,207.466z M126.264,207.466
					c0-1.071-0.757-1.805-1.764-1.805s-1.764,0.733-1.764,1.805c0,1.071,0.757,1.805,1.764,1.805S126.264,208.537,126.264,207.466z"
					/>
			</g>
			<g>
				<path style="fill:#FFFFFF;" d="M136.908,204.646l-1.845,5.64h-1.402l-1.241-3.819l-1.281,3.819h-1.394l-1.853-5.64h1.354
					l1.273,3.964l1.33-3.964h1.208l1.289,3.996l1.314-3.996H136.908z"/>
			</g>
		</g>
	</g>
	<g>
		<g>
			<g>
				<g>
					<rect x="53.529" y="328.104" style="fill:#FAFAFA;" width="135.009" height="75.492"/>
				</g>
			</g>
			<g>
				<g>
					<g>
						<path style="fill:#E0E0E0;" d="M188.538,403.595c0,0-0.014-0.468-0.021-1.361c-0.005-0.902-0.012-2.222-0.022-3.948
							c-0.011-3.469-0.028-8.558-0.05-15.096c-0.025-13.068-0.061-31.916-0.106-55.086l0.199,0.199
							c-36.017,0.016-83.335,0.038-134.999,0.061h-0.01l0.26-0.26c-0.006,26.695-0.012,52.227-0.017,75.491l-0.243-0.243
							c39.503,0.048,73.222,0.089,97.08,0.118c11.938,0.028,21.406,0.051,27.902,0.066c3.242,0.013,5.74,0.023,7.441,0.03
							c0.84,0.006,1.481,0.011,1.924,0.015C188.31,403.586,188.538,403.595,188.538,403.595s-0.209,0.01-0.633,0.015
							c-0.437,0.003-1.068,0.008-1.896,0.015c-1.69,0.007-4.171,0.017-7.392,0.03c-6.484,0.016-15.933,0.038-27.847,0.066
							c-23.897,0.029-57.673,0.07-97.241,0.118l-0.243,0v-0.243c-0.005-23.264-0.011-48.797-0.017-75.491v-0.26h0.26h0.01
							c51.664,0.023,98.982,0.045,134.999,0.061l0.2,0l0,0.199c-0.044,23.222-0.081,42.112-0.106,55.209
							c-0.022,6.519-0.039,11.593-0.05,15.052c-0.01,1.71-0.017,3.018-0.022,3.911C188.552,403.155,188.538,403.595,188.538,403.595
							z"/>
					</g>
				</g>
			</g>
		</g>
		<g>
			<g>
				<rect x="70.028" y="346.097" style="fill:#E0E0E0;" width="19.087" height="19.087"/>
			</g>
		</g>
		<g>
			<g>
				<g>
					<path style="fill:#E0E0E0;" d="M115.329,348.779c0,0.144-4.455,0.26-9.949,0.26c-5.496,0-9.95-0.117-9.95-0.26
						c0-0.144,4.454-0.26,9.95-0.26C110.874,348.518,115.329,348.635,115.329,348.779z"/>
				</g>
			</g>
		</g>
		<g>
			<g>
				<g>
					<path style="fill:#E0E0E0;" d="M178.889,355.64c0,0.144-18.684,0.26-41.727,0.26c-23.051,0-41.731-0.116-41.731-0.26
						c0-0.144,18.68-0.26,41.731-0.26C160.205,355.38,178.889,355.497,178.889,355.64z"/>
				</g>
			</g>
		</g>
		<g>
			<g>
				<g>
					<path style="fill:#E0E0E0;" d="M150.809,363.338c0,0.144-12.277,0.26-27.418,0.26c-15.146,0-27.421-0.117-27.421-0.26
						s12.274-0.26,27.421-0.26C138.532,363.078,150.809,363.194,150.809,363.338z"/>
				</g>
			</g>
		</g>
		<g>
			<g>
				<path style="fill:#E0E0E0;" d="M168.551,393.59H76.328c-4.886,0-8.846-3.961-8.846-8.846l0,0c0-4.886,3.961-8.846,8.846-8.846
					h92.224c4.885,0,8.846,3.961,8.846,8.846l0,0C177.398,389.629,173.437,393.59,168.551,393.59z"/>
			</g>
		</g>
		<g>
			<g>
				<path style="fill:#FFFFFF;" d="M105.483,385.986h-2.261l-0.432,1.044h-1.155l2.171-4.871h1.113l2.178,4.871h-1.183
					L105.483,385.986z M105.128,385.13l-0.772-1.865l-0.773,1.865H105.128z"/>
			</g>
			<g>
				<path style="fill:#FFFFFF;" d="M111.833,383.926c0,1.086-0.814,1.761-2.115,1.761h-0.981v1.343h-1.127v-4.871h2.108
					C111.019,382.159,111.833,382.834,111.833,383.926z M110.693,383.926c0-0.536-0.348-0.849-1.037-0.849h-0.919v1.691h0.919
					C110.345,384.768,110.693,384.455,110.693,383.926z"/>
			</g>
			<g>
				<path style="fill:#FFFFFF;" d="M116.863,383.926c0,1.086-0.814,1.761-2.115,1.761h-0.981v1.343h-1.127v-4.871h2.108
					C116.048,382.159,116.863,382.834,116.863,383.926z M115.721,383.926c0-0.536-0.348-0.849-1.037-0.849h-0.919v1.691h0.919
					C115.373,384.768,115.721,384.455,115.721,383.926z"/>
			</g>
			<g>
				<path style="fill:#FFFFFF;" d="M117.668,382.159h1.127v3.952h2.442v0.918h-3.569V382.159z"/>
			</g>
			<g>
				<path style="fill:#FFFFFF;" d="M123.711,385.304v1.726h-1.127v-1.739l-1.885-3.131h1.196l1.301,2.164l1.301-2.164h1.106
					L123.711,385.304z"/>
			</g>
			<g>
				<path style="fill:#FFFFFF;" d="M132.519,382.159v4.871h-0.925l-2.428-2.957v2.957h-1.113v-4.871h0.932l2.421,2.957v-2.957
					H132.519z"/>
			</g>
			<g>
				<path style="fill:#FFFFFF;" d="M133.374,384.594c0-1.447,1.127-2.519,2.665-2.519c1.53,0,2.664,1.065,2.664,2.519
					c0,1.455-1.134,2.519-2.664,2.519C134.501,387.113,133.374,386.041,133.374,384.594z M137.563,384.594
					c0-0.925-0.654-1.559-1.523-1.559c-0.87,0-1.524,0.633-1.524,1.559c0,0.926,0.654,1.559,1.524,1.559
					C136.909,386.153,137.563,385.52,137.563,384.594z"/>
			</g>
			<g>
				<path style="fill:#FFFFFF;" d="M146.76,382.159l-1.593,4.871h-1.21l-1.072-3.298l-1.107,3.298h-1.204l-1.601-4.871h1.169
					l1.1,3.423l1.148-3.423h1.044l1.113,3.451l1.134-3.451H146.76z"/>
			</g>
		</g>
	</g>
	<g>
		<g>
			<g>
				<g>
					<rect x="523.891" y="362.164" style="fill:#FAFAFA;" width="135.009" height="75.492"/>
				</g>
			</g>
			<g>
				<g>
					<g>
						<path style="fill:#E0E0E0;" d="M658.9,437.655c0,0-0.014-0.468-0.021-1.361c-0.005-0.902-0.012-2.222-0.022-3.948
							c-0.011-3.469-0.028-8.558-0.05-15.096c-0.025-13.069-0.061-31.916-0.106-55.087l0.199,0.199
							c-36.017,0.016-83.335,0.038-134.999,0.061h-0.01l0.26-0.26c-0.006,26.695-0.012,52.227-0.017,75.491l-0.243-0.243
							c39.503,0.048,73.222,0.089,97.08,0.118c11.938,0.028,21.406,0.051,27.902,0.066c3.242,0.013,5.74,0.023,7.441,0.03
							c0.84,0.006,1.481,0.011,1.924,0.015C658.672,437.645,658.9,437.655,658.9,437.655s-0.209,0.01-0.633,0.015
							c-0.437,0.003-1.068,0.008-1.896,0.015c-1.69,0.007-4.171,0.017-7.392,0.03c-6.484,0.015-15.932,0.038-27.847,0.066
							c-23.897,0.029-57.673,0.07-97.241,0.118l-0.243,0l0-0.243c-0.005-23.264-0.011-48.796-0.017-75.491v-0.26h0.26h0.01
							c51.664,0.023,98.982,0.045,134.999,0.061l0.2,0l0,0.199c-0.044,23.222-0.081,42.111-0.106,55.209
							c-0.022,6.519-0.039,11.593-0.05,15.051c-0.01,1.71-0.017,3.018-0.022,3.911C658.914,437.215,658.9,437.655,658.9,437.655z"/>
					</g>
				</g>
			</g>
		</g>
		<g>
			<g>
				<rect x="540.39" y="380.157" style="fill:#E0E0E0;" width="19.087" height="19.087"/>
			</g>
		</g>
		<g>
			<g>
				<g>
					<path style="fill:#E0E0E0;" d="M585.691,382.839c0,0.144-4.455,0.26-9.949,0.26c-5.496,0-9.95-0.117-9.95-0.26
						s4.454-0.26,9.95-0.26C581.236,382.578,585.691,382.695,585.691,382.839z"/>
				</g>
			</g>
		</g>
		<g>
			<g>
				<g>
					<path style="fill:#E0E0E0;" d="M649.251,389.7c0,0.144-18.684,0.26-41.727,0.26c-23.051,0-41.731-0.117-41.731-0.26
						c0-0.144,18.68-0.26,41.731-0.26C630.567,389.44,649.251,389.556,649.251,389.7z"/>
				</g>
			</g>
		</g>
		<g>
			<g>
				<g>
					<path style="fill:#E0E0E0;" d="M621.172,397.398c0,0.144-12.277,0.26-27.418,0.26c-15.146,0-27.421-0.116-27.421-0.26
						c0-0.144,12.274-0.26,27.421-0.26C608.894,397.138,621.172,397.254,621.172,397.398z"/>
				</g>
			</g>
		</g>
		<g>
			<g>
				<path style="fill:#E0E0E0;" d="M638.914,427.65H546.69c-4.885,0-8.846-3.961-8.846-8.846l0,0c0-4.886,3.96-8.846,8.846-8.846
					h92.224c4.886,0,8.846,3.96,8.846,8.846l0,0C647.76,423.689,643.799,427.65,638.914,427.65z"/>
			</g>
		</g>
		<g>
			<g>
				<path style="fill:#FFFFFF;" d="M575.845,420.045h-2.262l-0.432,1.044h-1.154l2.171-4.871h1.113l2.178,4.871h-1.183
					L575.845,420.045z M575.49,419.19l-0.771-1.865l-0.773,1.865H575.49z"/>
			</g>
			<g>
				<path style="fill:#FFFFFF;" d="M582.196,417.986c0,1.086-0.814,1.761-2.115,1.761h-0.981v1.343h-1.127v-4.871h2.108
					C581.381,416.218,582.196,416.893,582.196,417.986z M581.055,417.986c0-0.536-0.349-0.849-1.037-0.849h-0.919v1.691h0.919
					C580.707,418.828,581.055,418.515,581.055,417.986z"/>
			</g>
			<g>
				<path style="fill:#FFFFFF;" d="M587.225,417.986c0,1.086-0.814,1.761-2.115,1.761h-0.981v1.343h-1.127v-4.871h2.108
					C586.411,416.218,587.225,416.893,587.225,417.986z M586.084,417.986c0-0.536-0.348-0.849-1.037-0.849h-0.918v1.691h0.918
					C585.736,418.828,586.084,418.515,586.084,417.986z"/>
			</g>
			<g>
				<path style="fill:#FFFFFF;" d="M588.03,416.218h1.127v3.952h2.442v0.919h-3.569V416.218z"/>
			</g>
			<g>
				<path style="fill:#FFFFFF;" d="M594.074,419.364v1.726h-1.128v-1.739l-1.885-3.132h1.196l1.301,2.164l1.302-2.164h1.106
					L594.074,419.364z"/>
			</g>
			<g>
				<path style="fill:#FFFFFF;" d="M602.881,416.218v4.871h-0.925l-2.429-2.957v2.957h-1.113v-4.871h0.933l2.421,2.957v-2.957
					H602.881z"/>
			</g>
			<g>
				<path style="fill:#FFFFFF;" d="M603.737,418.654c0-1.447,1.127-2.518,2.665-2.518c1.53,0,2.664,1.064,2.664,2.518
					s-1.134,2.519-2.664,2.519C604.864,421.172,603.737,420.101,603.737,418.654z M607.925,418.654c0-0.926-0.654-1.559-1.523-1.559
					c-0.87,0-1.524,0.633-1.524,1.559c0,0.926,0.654,1.559,1.524,1.559C607.271,420.212,607.925,419.579,607.925,418.654z"/>
			</g>
			<g>
				<path style="fill:#FFFFFF;" d="M617.123,416.218l-1.594,4.871h-1.21l-1.072-3.298l-1.106,3.298h-1.203l-1.6-4.871h1.169
					l1.1,3.424l1.147-3.424h1.044l1.113,3.451l1.135-3.451H617.123z"/>
			</g>
		</g>
	</g>
	<g>
		<g>
			<g>
				<g>
					<rect x="551.329" y="177.833" style="fill:#FAFAFA;" width="156.201" height="87.341"/>
				</g>
			</g>
			<g>
				<g>
					<g>
						<path style="fill:#E0E0E0;" d="M707.531,265.175c0,0-0.014-0.54-0.021-1.571c-0.005-1.039-0.012-2.566-0.022-4.565
							c-0.012-4.009-0.029-9.897-0.05-17.462c-0.025-15.119-0.061-36.93-0.106-63.743l0.199,0.199
							c-41.669,0.016-96.415,0.038-156.19,0.061h-0.012l0.26-0.26c-0.006,30.885-0.012,60.426-0.017,87.341l-0.243-0.243
							c45.71,0.048,84.729,0.089,112.331,0.118c13.812,0.028,24.766,0.051,32.277,0.066c3.752,0.013,6.642,0.023,8.606,0.03
							c0.973,0.006,1.715,0.011,2.224,0.015C707.268,265.165,707.531,265.175,707.531,265.175s-0.243,0.01-0.734,0.015
							c-0.503,0.003-1.235,0.008-2.196,0.015c-1.952,0.007-4.826,0.017-8.556,0.03c-7.499,0.015-18.434,0.038-32.222,0.066
							c-27.642,0.029-66.716,0.07-112.492,0.118l-0.243,0l0-0.243c-0.005-26.915-0.011-56.456-0.017-87.341l0-0.26h0.261h0.012
							c59.774,0.023,114.521,0.045,156.19,0.061l0.2,0l0,0.199c-0.045,26.865-0.081,48.718-0.106,63.866
							c-0.022,7.546-0.039,13.419-0.05,17.418c-0.01,1.982-0.017,3.497-0.022,4.528
							C707.545,264.663,707.531,265.175,707.531,265.175z"/>
					</g>
				</g>
			</g>
		</g>
		<g>
			<g>
				<rect x="570.418" y="198.651" style="fill:#E0E0E0;" width="22.083" height="22.083"/>
			</g>
		</g>
		<g>
			<g>
				<g>
					<path style="fill:#E0E0E0;" d="M622.83,201.753c0,0.144-5.154,0.261-11.51,0.261c-6.359,0-11.511-0.117-11.511-0.261
						c0-0.144,5.153-0.26,11.511-0.26C617.676,201.493,622.83,201.61,622.83,201.753z"/>
				</g>
			</g>
		</g>
		<g>
			<g>
				<g>
					<path style="fill:#E0E0E0;" d="M696.367,209.692c0,0.144-21.617,0.26-48.277,0.26c-26.669,0-48.282-0.117-48.282-0.26
						c0-0.144,21.613-0.26,48.282-0.26C674.75,209.432,696.367,209.548,696.367,209.692z"/>
				</g>
			</g>
		</g>
		<g>
			<g>
				<g>
					<path style="fill:#E0E0E0;" d="M663.88,218.598c0,0.144-14.204,0.26-31.722,0.26c-17.524,0-31.725-0.117-31.725-0.26
						c0-0.144,14.201-0.26,31.725-0.26C649.675,218.338,663.88,218.455,663.88,218.598z"/>
				</g>
			</g>
		</g>
		<g>
			<g>
				<path style="fill:#E0E0E0;" d="M684.406,253.598h-106.7c-5.652,0-10.235-4.582-10.235-10.235v0
					c0-5.652,4.582-10.235,10.235-10.235h106.7c5.653,0,10.235,4.582,10.235,10.235v0
					C694.641,249.016,690.059,253.598,684.406,253.598z"/>
			</g>
		</g>
		<g>
			<g>
				<path style="fill:#FFFFFF;" d="M611.442,244.8h-2.618l-0.5,1.209h-1.337l2.514-5.64h1.289l2.521,5.64h-1.37L611.442,244.8z
					 M611.031,243.809l-0.894-2.159l-0.894,2.159H611.031z"/>
			</g>
			<g>
				<path style="fill:#FFFFFF;" d="M618.791,242.415c0,1.257-0.942,2.038-2.449,2.038h-1.136v1.555h-1.305v-5.64h2.44
					C617.848,240.369,618.791,241.151,618.791,242.415z M617.469,242.415c0-0.62-0.402-0.983-1.2-0.983h-1.063v1.958h1.063
					C617.067,243.39,617.469,243.028,617.469,242.415z"/>
			</g>
			<g>
				<path style="fill:#FFFFFF;" d="M624.609,242.415c0,1.257-0.942,2.038-2.449,2.038h-1.136v1.555h-1.306v-5.64h2.441
					C623.667,240.369,624.609,241.151,624.609,242.415z M623.288,242.415c0-0.62-0.403-0.983-1.2-0.983h-1.063v1.958h1.063
					C622.884,243.39,623.288,243.028,623.288,242.415z"/>
			</g>
			<g>
				<path style="fill:#FFFFFF;" d="M625.537,240.369h1.306v4.576h2.827v1.064h-4.133V240.369z"/>
			</g>
			<g>
				<path style="fill:#FFFFFF;" d="M632.531,244.011v1.998h-1.306v-2.014l-2.184-3.626h1.386l1.507,2.505l1.507-2.505h1.281
					L632.531,244.011z"/>
			</g>
			<g>
				<path style="fill:#FFFFFF;" d="M642.724,240.369v5.64h-1.072l-2.811-3.424v3.424h-1.289v-5.64h1.08l2.804,3.424v-3.424H642.724z
					"/>
			</g>
			<g>
				<path style="fill:#FFFFFF;" d="M643.709,243.189c0-1.676,1.305-2.917,3.085-2.917c1.773,0,3.086,1.233,3.086,2.917
					c0,1.684-1.313,2.917-3.086,2.917C645.013,246.105,643.709,244.865,643.709,243.189z M648.558,243.189
					c0-1.071-0.757-1.805-1.765-1.805c-1.007,0-1.764,0.733-1.764,1.805s0.757,1.805,1.764,1.805
					C647.801,244.993,648.558,244.26,648.558,243.189z"/>
			</g>
			<g>
				<path style="fill:#FFFFFF;" d="M659.203,240.369l-1.846,5.64h-1.401l-1.241-3.819l-1.28,3.819h-1.395l-1.853-5.64h1.354
					l1.272,3.964l1.33-3.964h1.208l1.289,3.996l1.314-3.996H659.203z"/>
			</g>
		</g>
	</g>
</g>
<g id="Background_Simple" style="display:none;">
	<g style="display:inline;">
		<g>
			<path style="fill:#F5F5F5;" d="M728.666,160.909l-1.505-2.48c-12.684-20.902-35.617-33.502-59.796-31.973
				c-3.108,0.197-6.203,0.617-9.256,1.271c-21.984,4.706-41.112,21.33-49.041,42.621c-4.663,12.521-5.966,26.938-14.815,36.877
				c-11.516,12.935-31.068,13.341-48.258,12.805c-17.19-0.536-36.755-0.079-48.215,12.907c-7.177,8.133-9.458,19.698-8.88,30.59
				c1.532,28.836,21.626,54.62,47.18,67.436c25.554,12.816,55.641,13.964,83.608,8.326c39.179-7.898,76.437-29.587,98.832-63.086
				C740.917,242.704,746.585,197.065,728.666,160.909z"/>
		</g>
	</g>
	<g style="display:inline;">
		<g>
			<path style="fill:#F5F5F5;" d="M22.903,282.481l0.734,2.806c6.189,23.653,24.57,42.276,48.179,47.714
				c3.035,0.699,6.121,1.179,9.234,1.425c22.412,1.766,45.49-8.705,59.168-26.846c8.044-10.669,13.408-24.114,24.726-31.113
				c14.73-9.109,33.584-3.916,49.905,1.505s35.202,10.569,49.893,1.395c9.201-5.745,14.689-16.178,17.244-26.782
				c6.764-28.074-5.132-58.521-25.963-78.099c-20.831-19.578-49.338-29.268-77.751-31.85c-39.803-3.616-81.703,6.533-112.73,32.244
				C34.515,200.592,16.053,242.714,22.903,282.481z"/>
		</g>
	</g>
</g>
<g id="Screen">
	<g>
		<g>
			<g>
				<rect x="135.996" y="43.461" style="fill:#FFFFFF;" width="462.776" height="423.166"/>
			</g>
		</g>
		<g>
			<g>
				<rect x="135.996" y="43.461" style="fill:#E0E0E0;" width="462.776" height="28.153"/>
			</g>
		</g>
		<g>
			<g>
				<g>
					<path style="fill:#263238;" d="M536.484,439.463c0,0.144-77.448,0.26-172.964,0.26c-95.548,0-172.98-0.117-172.98-0.26
						c0-0.144,77.432-0.26,172.98-0.26C459.036,439.202,536.484,439.319,536.484,439.463z"/>
				</g>
			</g>
		</g>
		<g>
			<g>
				<g>
					<g>
						<rect x="328.015" y="354.567" style="fill:#E0E0E0;" width="6.852" height="36.076"/>
					</g>
				</g>
				<g>
					<g>
						<g>
							<path style="fill:#263238;" d="M334.867,390.643c-0.011-0.011-0.023-0.266-0.034-0.744c-0.009-0.518-0.02-1.208-0.035-2.076
								c-0.018-1.84-0.043-4.428-0.074-7.633c-0.029-6.482-0.069-15.451-0.114-25.623l0.257,0.257
								c-2.201,0.001-4.504,0.002-6.85,0.003c0.516-0.521,0.143-0.138,0.258-0.251v0.011v0.022v0.044v0.089v0.178v0.355l0,0.707
								c0,0.471,0,0.939,0,1.406c-0.001,0.933-0.001,1.859-0.002,2.775c-0.002,1.832-0.004,3.627-0.006,5.379
								c-0.009,3.501-0.017,6.826-0.024,9.918c-0.035,6.147-0.065,11.36-0.087,15.182l-0.14-0.14
								c2.126,0.033,3.814,0.06,5.021,0.079c0.557,0.014,1.003,0.025,1.348,0.034C334.693,390.625,334.858,390.634,334.867,390.643
								c0.009,0.009-0.137,0.018-0.431,0.028c-0.338,0.009-0.773,0.02-1.317,0.034c-1.227,0.019-2.942,0.045-5.103,0.078
								l-0.14,0.002l-0.001-0.143c-0.022-3.822-0.052-9.035-0.087-15.182c-0.008-3.092-0.016-6.417-0.024-9.918
								c-0.002-1.752-0.004-3.548-0.006-5.379c0-0.916-0.001-1.841-0.002-2.775c0-0.467,0-0.935,0-1.406l0-0.707v-0.355v-0.178
								v-0.089v-0.044v-0.022v-0.011c0.117-0.119-0.262,0.25,0.262-0.269c2.346,0.001,4.648,0.002,6.85,0.003l0.258,0l-0.001,0.257
								c-0.045,10.245-0.085,19.277-0.114,25.806c-0.031,3.18-0.057,5.748-0.074,7.573c-0.014,0.844-0.026,1.515-0.035,2.019
								C334.889,390.422,334.878,390.655,334.867,390.643z"/>
						</g>
					</g>
				</g>
			</g>
			<g>
				<g>
					<path style="fill:#263238;" d="M347.298,349.103h-32.032c-4.749,0-8.598-3.849-8.598-8.598l0,0h49.227l0,0
						C355.896,345.254,352.047,349.103,347.298,349.103z"/>
				</g>
			</g>
			<g>
				<g>
					<path style="fill:#FF725E;" d="M375.553,342.192h-55.848v-11.945h55.848c3.299,0,5.973,2.674,5.973,5.972l0,0
						C381.526,339.518,378.852,342.192,375.553,342.192z"/>
				</g>
			</g>
			<g>
				<g>
					<path style="fill:#FF725E;" d="M276.309,244.472c-3.192,0.431-5.457,3.329-5.105,6.531l8.057,73.259
						c1.146,10.211,9.78,17.93,20.055,17.93h21.302c3.303,0,5.98-2.677,5.98-5.98v0c0-3.303-2.677-5.98-5.98-5.98h-18.084
						c-5.144,0-9.493-3.808-10.173-8.907l-9.371-71.74C282.563,246.324,279.567,244.031,276.309,244.472L276.309,244.472z"/>
				</g>
			</g>
			<g>
				<g>
					<path style="fill:#FF725E;" d="M344.166,330.833l-60.707,0.85l-5.926-87.269l50.81-0.323c5.07,0,9.179,4.149,9.179,9.268
						L344.166,330.833z"/>
				</g>
			</g>
			<g style="opacity:0.3;">
				<g>
					<path d="M276.309,244.472c-3.192,0.431-5.457,3.329-5.105,6.531l8.057,73.259c1.146,10.211,9.78,17.93,20.055,17.93h21.302
						c3.303,0,5.98-2.677,5.98-5.98v0c0-3.303-2.677-5.98-5.98-5.98h-19.383c-5.144,0-8.755-3.643-9.435-8.742l-8.81-71.905
						C282.563,246.324,279.567,244.031,276.309,244.472L276.309,244.472z"/>
				</g>
			</g>
			<g>
				<g>
					<rect x="324.805" y="349.103" style="fill:#263238;" width="13.272" height="6.902"/>
				</g>
			</g>
			<g>
				<g>
					<g>
						<path style="fill:#E0E0E0;" d="M333.926,420.228h-5.156c-2.19,0-3.966-1.775-3.966-3.966v-23.68
							c0-2.19,1.775-3.966,3.966-3.966h5.156c2.19,0,3.966,1.776,3.966,3.966v23.68
							C337.892,418.453,336.117,420.228,333.926,420.228z"/>
					</g>
				</g>
				<g>
					<g>
						<g>
							<path style="fill:#263238;" d="M333.926,420.228c-0.001-0.029,0.292-0.019,0.822-0.141c0.518-0.132,1.303-0.429,1.997-1.188
								c0.342-0.376,0.648-0.865,0.835-1.453c0.203-0.589,0.177-1.261,0.167-2.01c-0.011-1.492-0.024-3.181-0.039-5.042
								c-0.016-3.752-0.035-8.195-0.056-13.125c-0.003-1.235-0.006-2.501-0.009-3.793c-0.007-0.658,0.036-1.292-0.14-1.879
								c-0.155-0.599-0.487-1.149-0.921-1.603c-0.44-0.448-0.999-0.79-1.612-0.969c-0.607-0.19-1.271-0.146-1.978-0.15
								c-1.388,0-2.796,0.001-4.221,0.001c-1.34-0.005-2.62,0.764-3.243,1.909c-0.312,0.57-0.473,1.209-0.467,1.856
								c-0.001,0.684-0.001,1.362-0.002,2.034c-0.005,2.687-0.01,5.28-0.015,7.752c-0.021,4.93-0.04,9.373-0.056,13.126
								c-0.047,0.95,0.039,1.78,0.434,2.509c0.383,0.712,0.959,1.258,1.591,1.591c0.636,0.339,1.303,0.461,1.929,0.451
								c0.631,0.008,1.211,0.016,1.739,0.023c1.007,0.021,1.809,0.037,2.406,0.049C333.638,420.193,333.926,420.21,333.926,420.228
								s-0.289,0.035-0.839,0.052c-0.597,0.012-1.398,0.028-2.406,0.049c-0.527,0.007-1.107,0.014-1.739,0.023
								c-0.643,0.025-1.377-0.089-2.063-0.441c-0.686-0.346-1.321-0.924-1.749-1.692c-0.209-0.385-0.361-0.817-0.441-1.273
								c-0.087-0.464-0.062-0.933-0.07-1.393c-0.016-3.752-0.035-8.196-0.056-13.126c-0.005-2.472-0.01-5.064-0.015-7.752
								c-0.001-0.672-0.002-1.35-0.002-2.034c-0.008-0.719,0.173-1.461,0.529-2.108c0.707-1.305,2.169-2.185,3.696-2.178
								c1.425,0,2.833,0.001,4.221,0.001c0.674,0.006,1.412-0.044,2.123,0.174c0.698,0.205,1.333,0.596,1.832,1.107
								c0.492,0.517,0.866,1.145,1.041,1.826c0.198,0.689,0.145,1.384,0.151,2.013c-0.003,1.292-0.006,2.558-0.009,3.793
								c-0.021,4.929-0.04,9.372-0.056,13.125c-0.014,1.861-0.027,3.55-0.038,5.042c-0.004,0.729,0.01,1.464-0.222,2.086
								c-0.214,0.621-0.552,1.13-0.923,1.515c-0.754,0.775-1.584,1.05-2.123,1.152C334.219,420.281,333.926,420.228,333.926,420.228
								z"/>
						</g>
					</g>
				</g>
			</g>
			<g>
				<g>
					<g>
						<path style="fill:#E0E0E0;" d="M369.553,418.273h-77.907c-2.285,0-4.172,0.76-5.607,2.259c-2.889,3.018-2.709,7.97-2.7,8.179
							l3.546-0.149c-0.038-1.015,0.198-3.998,1.725-5.584c0.749-0.778,1.742-1.157,3.036-1.157h20.44v9.053h3.548v-9.053h53.918
							c2.282,0,4.138,1.856,4.138,4.138v2.675h3.549v-2.675C377.239,421.721,373.791,418.273,369.553,418.273z"/>
					</g>
				</g>
				<g>
					<g>
						<g>
							<path style="fill:#263238;" d="M369.553,418.273c0,0,0.33-0.025,0.97,0.034c0.638,0.06,1.597,0.259,2.721,0.836
								c1.099,0.597,2.37,1.625,3.233,3.276c0.429,0.818,0.742,1.785,0.84,2.848c0.075,1.07,0.029,2.177,0.049,3.367l0.002,0.126
								l-0.129,0c-1.103,0.004-2.297,0.009-3.548,0.013l-0.132,0l-0.008-0.141c-0.098-1.734,0.4-3.853-1.048-5.336
								c-0.651-0.723-1.601-1.216-2.629-1.293c-1.043-0.03-2.163-0.003-3.285-0.008c-4.512,0.009-9.468,0.02-14.806,0.031
								c-10.682,0.012-22.895,0.027-36.148,0.042l0.249-0.249c0.002,2.849,0.004,5.927,0.005,9.053l0,0.254l-0.255,0
								c-1.108,0.001-2.325,0.001-3.548,0.002l-0.256,0l0-0.256c-0.001-2.864-0.002-5.94-0.003-9.053l0.259,0.259
								c-3.702,0-7.63,0.001-11.606,0.001c-3.088,0.003-6.148,0.007-9.171,0.01c-0.722,0.035-1.424,0.231-1.998,0.629
								c-0.579,0.393-1.004,0.984-1.317,1.627c-0.613,1.295-0.863,2.789-0.852,4.205l0.002,0.256l-0.248,0.01
								c-1.191,0.05-2.372,0.099-3.546,0.148l-0.263,0.011l-0.003-0.256c-0.023-1.698,0.217-3.362,0.761-4.939
								c0.537-1.569,1.442-3.043,2.738-4.088c1.289-1.055,2.935-1.587,4.54-1.655c1.597-0.028,3.135-0.006,4.682-0.011
								c6.162,0.007,12.069,0.013,17.668,0.019c11.193,0.022,21.154,0.041,29.468,0.057c8.293,0.033,14.941,0.059,19.537,0.077
								c2.272,0.019,4.036,0.034,5.253,0.044c0.585,0.01,1.035,0.018,1.359,0.023C369.397,418.257,369.553,418.273,369.553,418.273
								s-0.156,0.016-0.462,0.023c-0.325,0.005-0.775,0.013-1.359,0.023c-1.217,0.01-2.981,0.025-5.253,0.044
								c-4.595,0.018-11.243,0.044-19.537,0.077c-8.314,0.016-18.276,0.035-29.468,0.057c-5.599,0.006-11.506,0.013-17.668,0.019
								c-1.535,0.008-3.11-0.012-4.656,0.018c-1.527,0.068-3.051,0.568-4.252,1.551c-1.206,0.977-2.059,2.358-2.574,3.864
								c-0.52,1.503-0.753,3.143-0.729,4.751l-0.266-0.244c1.174-0.05,2.355-0.1,3.546-0.151l-0.246,0.266
								c-0.009-1.521,0.24-3.037,0.901-4.451c0.337-0.695,0.814-1.368,1.487-1.827c0.667-0.464,1.477-0.683,2.263-0.721
								c3.033-0.004,6.103-0.008,9.201-0.012c3.976,0,7.904,0.001,11.606,0.001h0.259l0,0.259c-0.001,3.113-0.002,6.189-0.003,9.053
								l-0.256-0.256c1.224,0.001,2.441,0.001,3.548,0.002l-0.254,0.254c0.002-3.126,0.004-6.203,0.005-9.053l0-0.249l0.249,0
								c13.253,0.015,25.466,0.03,36.148,0.042c5.338,0.011,10.294,0.021,14.806,0.031c1.134,0.011,2.215-0.012,3.312,0.026
								c1.114,0.089,2.14,0.63,2.837,1.414c0.702,0.782,1.09,1.795,1.097,2.782c-0.002,0.953-0.003,1.875-0.005,2.766l-0.14-0.14
								c1.251,0.005,2.445,0.009,3.548,0.013l-0.127,0.127c-0.01-1.181,0.044-2.317-0.02-3.347c-0.085-1.034-0.381-1.977-0.79-2.779
								c-0.823-1.619-2.053-2.643-3.122-3.248c-1.095-0.585-2.036-0.805-2.666-0.886
								C369.883,418.294,369.552,418.293,369.553,418.273z"/>
						</g>
					</g>
				</g>
			</g>
			<g>
				<g>
					<path style="fill:#263238;" d="M320.696,435.095c0,3.835-3.108,6.943-6.943,6.943c-3.834,0-6.943-3.108-6.943-6.943
						c0-3.834,3.108-6.943,6.943-6.943C317.587,428.152,320.696,431.26,320.696,435.095z"/>
				</g>
			</g>
			<g>
				<g>
					<path style="fill:#263238;" d="M292.058,433.396c0,3.835-3.108,6.943-6.943,6.943c-3.834,0-6.943-3.108-6.943-6.943
						c0-3.834,3.108-6.943,6.943-6.943C288.949,426.454,292.058,429.562,292.058,433.396z"/>
				</g>
			</g>
			<g>
				<g>
					<path style="fill:#263238;" d="M381.606,433.649c0,3.834-3.108,6.943-6.943,6.943c-3.835,0-6.943-3.108-6.943-6.943
						c0-3.834,3.108-6.943,6.943-6.943C378.497,426.707,381.606,429.815,381.606,433.649z"/>
				</g>
			</g>
			<g>
				<g>
					<g>
						<path style="fill:#263238;" d="M377.051,330.247c0.001,0.144-17.117,0.324-38.228,0.402
							c-21.119,0.078-38.233,0.025-38.234-0.119c-0.001-0.144,17.113-0.324,38.232-0.402
							C359.933,330.05,377.051,330.103,377.051,330.247z"/>
					</g>
				</g>
			</g>
			<g>
				<g>
					<g>
						<path style="fill:#263238;" d="M291.882,320.319c-0.143,0.018-2.249-15.803-4.705-35.333
							c-2.456-19.536-4.331-35.383-4.188-35.401c0.143-0.018,2.249,15.8,4.705,35.336
							C290.149,304.451,292.024,320.301,291.882,320.319z"/>
					</g>
				</g>
			</g>
			<g>
				<g>
					<g>
						<path style="fill:#263238;" d="M282.354,244.305c-0.004-0.016,0.179-0.07,0.536-0.144c0.358-0.059,0.89-0.142,1.581-0.16
							c1.371-0.033,3.413,0.037,5.765,0.887c1.159,0.431,2.398,1.166,3.359,2.287c0.988,1.093,1.807,2.434,2.579,3.866
							c1.5,2.885,3.162,6.025,5.002,9.285c3.677,6.517,7.128,12.355,9.469,16.672c1.182,2.152,2.094,3.917,2.712,5.142
							c0.278,0.575,0.506,1.045,0.689,1.423c0.152,0.328,0.225,0.504,0.208,0.512c-0.016,0.008-0.119-0.152-0.302-0.464
							c-0.206-0.365-0.462-0.821-0.775-1.377c-0.71-1.259-1.677-2.971-2.855-5.058c-2.42-4.265-5.919-10.069-9.602-16.596
							c-1.84-3.26-3.502-6.431-4.971-9.313c-0.752-1.425-1.541-2.742-2.478-3.805c-0.915-1.091-2.047-1.783-3.17-2.231
							c-2.263-0.869-4.277-1-5.629-1.028C283.108,244.188,282.363,244.35,282.354,244.305z"/>
					</g>
				</g>
			</g>
			<g>
				<g>
					<g>
						<path style="fill:#263238;" d="M271.614,248.096c0.124,0.073-4.473,8.091-10.266,17.907
							c-5.795,9.819-10.592,17.717-10.716,17.644c-0.124-0.073,4.472-8.089,10.267-17.908
							C266.692,255.922,271.49,248.022,271.614,248.096z"/>
					</g>
				</g>
			</g>
			<g>
				<g>
					<g>
						<rect x="242.622" y="283.644" style="fill:#FAFAFA;" width="83.23" height="24.542"/>
					</g>
				</g>
				<g>
					<g>
						<path style="fill:#263238;" d="M265.066,291.265l-4.073,9.41h-2.151l-4.06-9.41h2.352l2.863,6.722l2.904-6.722H265.066z"/>
					</g>
					<g>
						<path style="fill:#263238;" d="M271.73,298.659h-4.369l-0.833,2.017h-2.232l4.194-9.41h2.151l4.207,9.41h-2.285
							L271.73,298.659z M271.044,297.005l-1.492-3.602l-1.492,3.602H271.044z"/>
					</g>
					<g>
						<path style="fill:#263238;" d="M275.1,295.97c0-2.837,2.178-4.866,5.108-4.866c1.626,0,2.984,0.592,3.872,1.667l-1.398,1.29
							c-0.632-0.726-1.425-1.102-2.366-1.102c-1.761,0-3.011,1.236-3.011,3.011c0,1.775,1.25,3.012,3.011,3.012
							c0.941,0,1.734-0.377,2.366-1.116l1.398,1.29c-0.887,1.09-2.245,1.681-3.885,1.681
							C277.278,300.836,275.1,298.807,275.1,295.97z"/>
					</g>
					<g>
						<path style="fill:#263238;" d="M291.551,298.659h-4.369l-0.833,2.017h-2.232l4.194-9.41h2.151l4.207,9.41h-2.285
							L291.551,298.659z M290.865,297.005l-1.492-3.602l-1.492,3.602H290.865z"/>
					</g>
					<g>
						<path style="fill:#263238;" d="M304.277,291.265v9.41h-1.788l-4.691-5.713v5.713h-2.151v-9.41h1.801l4.678,5.713v-5.713
							H304.277z"/>
					</g>
					<g>
						<path style="fill:#263238;" d="M308.455,293.039h-3.011v-1.774h8.2v1.774h-3.011v7.636h-2.178V293.039z"/>
					</g>
				</g>
				<g>
					<g>
						<g>
							<path style="fill:#263238;" d="M323.162,305.951c-0.005-0.005-0.01-0.125-0.016-0.356c-0.004-0.25-0.009-0.586-0.016-1.021
								c-0.009-0.915-0.021-2.232-0.038-3.935c-0.02-3.437-0.049-8.427-0.086-14.733l0.156,0.156
								c-17.748,0.023-46.323,0.061-78.504,0.104c0.115-0.116-0.264,0.26,0.256-0.26v0.005v0.01v0.02v0.04v0.081v0.161v0.322v0.643
								l0,1.283c0,0.854,0,1.705,0,2.553c0,1.697-0.001,3.381-0.001,5.054c-0.001,3.345-0.003,6.639-0.004,9.873l-0.255-0.255
								c22.365,0.046,41.954,0.087,55.975,0.116c7.008,0.031,12.623,0.056,16.51,0.073c1.923,0.014,3.418,0.026,4.456,0.034
								c0.494,0.007,0.879,0.012,1.161,0.016C323.02,305.939,323.162,305.951,323.162,305.951c0.006,0.005-0.12,0.011-0.373,0.017
								c-0.274,0.004-0.649,0.009-1.13,0.016c-1.025,0.008-2.501,0.019-4.401,0.034c-3.874,0.017-9.469,0.042-16.452,0.073
								c-14.066,0.029-33.717,0.069-56.153,0.116l-0.255,0l0-0.256c-0.001-3.234-0.003-6.528-0.004-9.873
								c0-1.672-0.001-3.357-0.001-5.054c0-0.848,0-1.699,0-2.553l0-1.283v-0.643v-0.322v-0.161v-0.081v-0.04v-0.02v-0.01v-0.005
								c0.521-0.521,0.147-0.144,0.265-0.261c32.18,0.043,60.755,0.08,78.504,0.104l0.158,0l-0.001,0.156
								c-0.037,6.346-0.066,11.367-0.087,14.826c-0.016,1.687-0.029,2.993-0.038,3.9c-0.007,0.423-0.012,0.75-0.016,0.993
								C323.173,305.846,323.168,305.956,323.162,305.951z"/>
						</g>
					</g>
				</g>
			</g>
		</g>
		<g>
			<g>
				<g>
					<path style="fill:#263238;" d="M331.296,161.879h6.335l-6.268,5.067h-4.534L331.296,161.879z"/>
				</g>
			</g>
			<g>
				<g>
					<path style="fill:#263238;" d="M260.233,210.161v13.164h-8.068v-11.848c0-3.313-1.444-4.714-3.779-4.714
						c-2.59,0-4.586,1.614-4.586,5.436v11.126h-8.068v-31.509h8.068v10.616c1.784-1.656,4.204-2.505,6.922-2.505
						C256.114,199.927,260.233,203.027,260.233,210.161z"/>
				</g>
				<g>
					<path style="fill:#263238;" d="M264.399,193.472c0-2.42,1.953-4.289,4.926-4.289c2.973,0,4.926,1.741,4.926,4.162
						c0,2.548-1.954,4.416-4.926,4.416C266.352,197.761,264.399,195.892,264.399,193.472z M265.291,200.309h8.068v23.016h-8.068
						V200.309z"/>
				</g>
				<g>
					<path style="fill:#263238;" d="M293.998,199.927v7.262c-0.722-0.085-1.232-0.127-1.826-0.127c-3.27,0-5.521,1.656-5.521,5.69
						v10.574h-8.068v-23.016h7.686v2.76C287.925,200.988,290.601,199.927,293.998,199.927z"/>
				</g>
				<g>
					<path style="fill:#263238;" d="M296.421,193.472c0-2.42,1.953-4.289,4.926-4.289c2.973,0,4.926,1.741,4.926,4.162
						c0,2.548-1.953,4.416-4.926,4.416C298.374,197.761,296.421,195.892,296.421,193.472z M297.313,200.309h8.068v23.016h-8.068
						V200.309z"/>
				</g>
				<g>
					<path style="fill:#263238;" d="M335.108,210.161v13.164h-8.068v-11.848c0-3.313-1.444-4.714-3.779-4.714
						c-2.59,0-4.586,1.614-4.586,5.436v11.126h-8.068v-23.016h7.686v2.505c1.826-1.911,4.417-2.888,7.304-2.888
						C330.988,199.927,335.108,203.027,335.108,210.161z"/>
				</g>
				<g>
					<path style="fill:#263238;" d="M365.261,200.309v18.812c0,8.706-4.926,12.825-13.504,12.825c-4.417,0-8.621-1.02-11.423-3.015
						l2.93-5.648c1.911,1.529,5.053,2.463,7.771,2.463c4.332,0,6.158-1.953,6.158-5.563v-0.764
						c-1.571,1.826-3.907,2.718-6.837,2.718c-6.115,0-11.296-4.332-11.296-11.126c0-6.752,5.181-11.083,11.296-11.083
						c3.185,0,5.648,1.019,7.219,3.185v-2.803H365.261z M357.278,211.01c0-2.803-2.124-4.671-5.011-4.671
						c-2.887,0-5.053,1.869-5.053,4.671c0,2.803,2.166,4.714,5.053,4.714C355.154,215.724,357.278,213.813,357.278,211.01z"/>
				</g>
				<g>
					<path style="fill:#FF725E;" d="M369.001,218.908c0-2.888,2.124-4.756,4.841-4.756c2.761,0,4.841,1.868,4.841,4.756
						c0,2.803-2.08,4.799-4.841,4.799C371.125,223.707,369.001,221.711,369.001,218.908z"/>
				</g>
			</g>
			<g>
				<g>
					<path style="fill:#263238;" d="M345.704,168.814v5.701c-0.567-0.066-0.967-0.1-1.434-0.1c-2.567,0-4.334,1.3-4.334,4.468v8.302
						h-6.335v-18.07h6.035v2.167C340.936,169.648,343.037,168.814,345.704,168.814z"/>
				</g>
				<g>
					<path style="fill:#263238;" d="M366.508,179.75h-13.136c0.534,1.834,2.101,2.901,4.435,2.901c1.767,0,2.934-0.5,4.168-1.567
						l3.334,3.467c-1.734,1.934-4.268,2.934-7.702,2.934c-6.435,0-10.602-3.968-10.602-9.369c0-5.434,4.234-9.302,9.935-9.302
						c5.334,0,9.669,3.401,9.669,9.369C366.608,178.65,366.542,179.25,366.508,179.75z M353.272,176.416h7.402
						c-0.334-1.9-1.734-3.1-3.701-3.1C355.006,173.315,353.639,174.515,353.272,176.416z"/>
				</g>
			</g>
			<g>
				<g>
					<path style="fill:#263238;" d="M306.296,169.115l-6.435,18.07h-6.134l-3.401-9.836l-3.534,9.836h-6.135l-6.435-18.07h6.001
						l3.701,10.936l3.834-10.936h5.401l3.734,11.036l3.834-11.036H306.296z"/>
				</g>
				<g>
					<path style="fill:#263238;" d="M326.1,179.75h-13.136c0.534,1.834,2.101,2.901,4.435,2.901c1.767,0,2.934-0.5,4.168-1.567
						l3.334,3.467c-1.734,1.934-4.267,2.934-7.702,2.934c-6.435,0-10.602-3.968-10.602-9.369c0-5.434,4.234-9.302,9.935-9.302
						c5.335,0,9.669,3.401,9.669,9.369C326.2,178.65,326.133,179.25,326.1,179.75z M312.864,176.416h7.402
						c-0.334-1.9-1.734-3.1-3.701-3.1C314.598,173.315,313.231,174.515,312.864,176.416z"/>
				</g>
			</g>
		</g>
		<g>
			<g>
				<g>
					<g>
						<path style="fill:#E0E0E0;" d="M278.91,135.657l-1.011-21.25c-0.083-1.737-1.448-3.141-3.182-3.272l0,0
							c-1.83-0.138-3.446,1.183-3.677,3.004l-2.691,21.299c-0.204,1.613,1.052,3.039,2.677,3.042l5.179,0.009
							C277.751,138.491,278.984,137.2,278.91,135.657z"/>
					</g>
				</g>
				<g>
					<g>
						<path style="fill:#E0E0E0;" d="M269.277,99.106c0.944-2.702,3.9-4.126,6.601-3.182c2.702,0.944,4.126,3.9,3.182,6.601
							c-0.944,2.702-3.9,4.126-6.602,3.182C269.758,104.764,268.333,101.808,269.277,99.106z"/>
					</g>
				</g>
			</g>
			<g>
				<g>
					<g>
						<path style="fill:#F5F5F5;" d="M223.291,162.511l-12.378-10.486c-1.012-0.857-2.505-0.826-3.48,0.074l0,0
							c-1.028,0.949-1.132,2.537-0.237,3.613l10.48,12.577c0.794,0.952,2.242,0.994,3.089,0.089l2.699-2.884
							C224.269,164.632,224.19,163.273,223.291,162.511z"/>
					</g>
				</g>
				<g>
					<g>
						<path style="fill:#F5F5F5;" d="M197.895,148.877c-1.016-1.932-0.274-4.321,1.658-5.337c1.931-1.016,4.321-0.274,5.337,1.658
							c1.016,1.932,0.273,4.321-1.658,5.337C201.3,151.551,198.911,150.809,197.895,148.877z"/>
					</g>
				</g>
			</g>
			<g>
				<g>
					<path style="fill:#E0E0E0;" d="M212.793,113.088l19.03,32.244c1.556,2.636,4.833,3.699,7.641,2.478l0,0
						c2.961-1.289,4.392-4.672,3.255-7.695l-13.307-35.361c-1.008-2.678-4.134-3.867-6.666-2.536l-8.069,4.241
						C212.27,107.724,211.411,110.746,212.793,113.088z"/>
				</g>
			</g>
			<g>
				<g>
					<path style="fill:#E0E0E0;" d="M257.812,162.063c0.75,4.981-2.68,9.626-7.661,10.375c-4.981,0.75-9.626-2.68-10.376-7.66
						c-0.75-4.981,2.68-9.626,7.661-10.376C252.417,153.653,257.062,157.082,257.812,162.063z"/>
				</g>
			</g>
		</g>
		<g>
			<g>
				<g>
					<path style="fill:#263238;" d="M598.772,466.627c-0.001-1.876-0.088-168.686-0.222-423.166l0.222,0.222
						c-133.487,0.011-292.508,0.024-462.734,0.039h-0.042l0.26-0.26c-0.012,154.163-0.023,299.117-0.032,423.166l-0.228-0.228
						C412.672,466.535,596.802,466.626,598.772,466.627c-1.969,0.001-186.1,0.092-462.776,0.228l-0.229,0l0-0.229
						c-0.009-124.049-0.02-269.003-0.032-423.166v-0.261h0.26h0.042c170.225,0.014,329.247,0.027,462.734,0.039h0.222v0.222
						C598.86,297.941,598.773,464.753,598.772,466.627z"/>
				</g>
			</g>
		</g>
		<g>
			<g>
				<circle style="fill:#FFFFFF;" cx="148.857" cy="57.338" r="3.826"/>
			</g>
		</g>
		<g>
			<g>
				<circle style="fill:#FFFFFF;" cx="162.019" cy="57.338" r="3.826"/>
			</g>
		</g>
		<g>
			<g>
				<circle style="fill:#FFFFFF;" cx="175.18" cy="57.338" r="3.826"/>
			</g>
		</g>
	</g>
</g>
<g id="Character">
	<g>
		<g>
			<g>
				<g>
					<path style="fill:#455A64;" d="M421.565,136.952c-0.058,0.152-2.195-0.521-4.774-1.502c-2.58-0.982-4.624-1.9-4.566-2.052
						c0.058-0.151,2.194,0.521,4.774,1.503C419.578,135.882,421.622,136.801,421.565,136.952z"/>
				</g>
			</g>
			<g>
				<g>
					<path style="fill:#FFBE9D;" d="M408.765,157.141c-1.045-0.116-3.7,1.225-5.943,3.898c-0.038,0.041-0.077,0.075-0.114,0.117
						c-1.589,1.791-2.577-3.708-2.683-5.736c-0.069-1.316-1.424-2.217-2.734-1.834l-6.979,2.688l-1.978-0.071
						c-1.021,0.298-1.645,1.283-1.454,2.294l2.483,10.897l-0.134,2.918l13.403,2.78l0.72-7.28c0.261-0.829,0.599-1.805,1.039-2.915
						c0.396-0.997,0.967-1.934,1.689-2.744c0.757-0.849,1.78-1.917,2.619-2.498c0.076-0.042,0.161-0.102,0.232-0.134
						c0.171-0.077,0.299-0.187,0.409-0.307C410.076,158.519,409.785,157.254,408.765,157.141z"/>
				</g>
			</g>
			<g>
				<g>
					<path style="fill:#FF725E;" d="M405.828,126.435c0,0-7.999-0.995-20.025-10.56c-12.026-9.565-18.534-23.158-19.877-22.962
						c-1.343,0.196-7.494-1.985-16.406,23.454c-8.911,25.439-3.963,30.685-1.736,30.429c2.226-0.256,16.973-5.904,26.535-5.72
						c9.561,0.184,22.185,3.968,22.185,3.968L405.828,126.435z"/>
				</g>
			</g>
			<g>
				<g>
					<path style="fill:#263238;" d="M423.727,138.157l-2.194,5.334l-0.983,2.39c-1.348,3.278-5.026,4.927-8.37,3.752l-17.347-4.269
						l7.677-23.252l17.623,7.361C423.515,130.887,425.121,134.766,423.727,138.157z"/>
				</g>
			</g>
			<g>
				<g>
					<path style="fill:#263238;" d="M416.895,146.04l-5.81,10.303l-2.655-0.858l-18.134,13.539l-4.503-9.801
						c0,0,10.552-4.034,12.623-7.651c2.071-3.617-0.11-4.547-0.11-4.547l5.109-5.341L416.895,146.04z"/>
				</g>
			</g>
			<g>
				<g>
					<path style="fill:#263238;" d="M350.467,116.726c-4.721,13.77-6.095,25.774-3.069,26.812
						c3.025,1.037,9.305-9.285,14.026-23.055c4.72-13.77,6.095-25.774,3.069-26.811C361.467,92.634,355.188,102.956,350.467,116.726
						z"/>
				</g>
			</g>
			<g>
				<g>
					<polygon style="fill:#455A64;" points="425.86,145.365 421.173,144.365 423.486,138.743 427.1,140.543 					"/>
				</g>
			</g>
			<g>
				<g>
					<path style="fill:#455A64;" d="M420.465,140.274c-0.053,0.154-2.408-0.515-5.26-1.494c-2.854-0.979-5.123-1.897-5.07-2.05
						c0.052-0.153,2.407,0.516,5.26,1.494C418.248,139.203,420.518,140.121,420.465,140.274z"/>
				</g>
			</g>
			<g>
				<g>
					<path style="fill:#455A64;" d="M419.015,143.786c-0.017,0.08-0.569,0.006-1.457-0.179c-0.443-0.092-0.97-0.213-1.553-0.355
						c-0.58-0.15-1.191-0.39-1.842-0.614c-2.599-0.921-4.608-1.874-4.558-2.014c0.059-0.165,2.177,0.547,4.752,1.46
						c0.645,0.222,1.248,0.477,1.811,0.652c0.564,0.168,1.071,0.327,1.495,0.47C418.51,143.49,419.031,143.707,419.015,143.786z"/>
				</g>
			</g>
			<g>
				<g>
					<path style="fill:#FAFAFA;" d="M362.352,112.643c0,0-7.209-3.581-10.068,5.971c-2.859,9.553,4.449,10.39,4.449,10.39
						C359.237,124.181,361.128,118.745,362.352,112.643z"/>
				</g>
			</g>
			<g>
				<g>
					<path style="fill:#263238;" d="M368.562,100.994c0.04,0.003,0.003,0.637-0.101,1.783c-0.109,1.145-0.26,2.806-0.508,4.851
						c-0.195,1.014-0.408,2.121-0.637,3.309c-0.116,0.595-0.237,1.21-0.36,1.843c-0.062,0.317-0.126,0.638-0.19,0.964
						c-0.072,0.324-0.176,0.645-0.264,0.974c-0.371,1.312-0.761,2.689-1.164,4.115c-0.102,0.357-0.204,0.716-0.307,1.079
						c-0.099,0.364-0.255,0.713-0.382,1.074c-0.268,0.718-0.54,1.446-0.816,2.183c-0.276,0.737-0.55,1.465-0.819,2.182
						c-0.142,0.356-0.254,0.721-0.417,1.061c-0.161,0.341-0.32,0.68-0.477,1.016c-0.632,1.341-1.243,2.635-1.825,3.869
						c-0.15,0.306-0.282,0.616-0.44,0.908c-0.166,0.288-0.329,0.573-0.491,0.853c-0.323,0.56-0.637,1.103-0.94,1.63
						c-0.608,1.046-1.176,2.023-1.695,2.916c-1.154,1.701-2.128,3.048-2.797,3.983c-0.674,0.931-1.062,1.436-1.096,1.413
						c-0.034-0.023,0.291-0.57,0.907-1.541c0.64-0.99,1.538-2.38,2.642-4.087c0.496-0.898,1.039-1.879,1.62-2.931
						c0.292-0.526,0.595-1.07,0.906-1.629c0.156-0.279,0.314-0.563,0.475-0.851c0.153-0.291,0.282-0.602,0.427-0.907
						c0.568-1.23,1.164-2.52,1.782-3.858c0.155-0.334,0.311-0.671,0.469-1.011c0.161-0.338,0.271-0.701,0.411-1.055
						c0.266-0.713,0.537-1.436,0.81-2.168c0.274-0.731,0.545-1.454,0.813-2.166c0.127-0.358,0.283-0.704,0.383-1.065
						c0.104-0.36,0.207-0.716,0.31-1.07c0.412-1.413,0.81-2.778,1.189-4.078c0.092-0.326,0.198-0.643,0.274-0.964
						c0.068-0.323,0.135-0.641,0.201-0.955c0.133-0.627,0.262-1.237,0.387-1.826c0.252-1.176,0.488-2.273,0.704-3.277
						c0.288-2.008,0.523-3.642,0.69-4.807C368.407,101.618,368.522,100.991,368.562,100.994z"/>
				</g>
			</g>
			<g>
				<g>
					<path style="fill:#FFBE9D;" d="M395.073,151.381c-0.746,0.262-1.164,1.09-0.947,1.878c0.417,1.508,1.095,3.875,1.626,5.317
						c0.171,0.465,0.357,0.938,0.684,1.3c0.327,0.362,0.829,0.593,1.289,0.454c0.485-0.147,0.8-0.668,0.873-1.189
						c0.073-0.522-0.048-1.048-0.174-1.557c-0.347-1.407-0.967-3.518-1.504-5.238C396.67,151.542,395.842,151.11,395.073,151.381
						L395.073,151.381z"/>
				</g>
			</g>
			<g>
				<g>
					<path style="fill:#FFBE9D;" d="M392.829,153.95c-0.746,0.262-1.164,1.09-0.947,1.878c0.417,1.508,1.095,3.875,1.626,5.317
						c0.171,0.465,0.357,0.939,0.684,1.3c0.327,0.362,0.829,0.593,1.289,0.454c0.485-0.146,0.8-0.668,0.873-1.189
						c0.073-0.522-0.048-1.048-0.174-1.558c-0.347-1.407-0.967-3.518-1.504-5.238C394.426,154.111,393.598,153.68,392.829,153.95
						L392.829,153.95z"/>
				</g>
			</g>
			<g>
				<g>
					<path style="fill:#FFBE9D;" d="M390.727,155.532c-0.674,0.225-1.05,0.941-0.851,1.624c0.381,1.307,1.001,3.359,1.485,4.61
						c0.156,0.403,0.326,0.814,0.622,1.128c0.297,0.314,0.752,0.516,1.167,0.397c0.438-0.126,0.721-0.576,0.786-1.028
						c0.065-0.452-0.046-0.908-0.161-1.35c-0.318-1.219-0.884-3.049-1.374-4.541C392.173,155.676,391.422,155.3,390.727,155.532
						L390.727,155.532z"/>
				</g>
			</g>
			<g>
				<g>
					<path style="fill:#FFBE9D;" d="M388.08,155.929c-0.678,0.226-1.055,0.946-0.855,1.632c0.383,1.313,1.005,3.375,1.492,4.632
						c0.157,0.405,0.327,0.818,0.625,1.133c0.298,0.316,0.755,0.518,1.173,0.398c0.441-0.126,0.725-0.579,0.79-1.033
						c0.065-0.454-0.047-0.912-0.162-1.356c-0.319-1.225-0.888-3.064-1.381-4.562C389.533,156.074,388.779,155.696,388.08,155.929
						L388.08,155.929z"/>
				</g>
			</g>
			<g>
				<g>
					<path style="fill:#EB996E;" d="M396.295,159.925c-0.143,0.048-0.678-1.148-1.193-2.673c-0.516-1.525-0.817-2.8-0.674-2.849
						c0.143-0.049,0.678,1.148,1.193,2.673C396.136,158.601,396.438,159.877,396.295,159.925z"/>
				</g>
			</g>
			<g>
				<g>
					<path style="fill:#EB996E;" d="M393.894,162.021c-0.145,0.044-0.711-1.333-1.264-3.076c-0.553-1.743-0.886-3.196-0.742-3.245
						c0.143-0.049,0.709,1.328,1.264,3.076C393.706,160.523,394.039,161.976,393.894,162.021z"/>
				</g>
			</g>
			<g>
				<g>
					<path style="fill:#EB996E;" d="M391.535,162.156c-0.135,0.06-0.784-1.108-1.306-2.662c-0.526-1.554-0.716-2.876-0.572-2.91
						c0.15-0.036,0.574,1.207,1.091,2.735C391.261,160.847,391.676,162.094,391.535,162.156z"/>
				</g>
			</g>
			<g>
				<g>
					<path style="fill:none;stroke:#4E585D;stroke-width:0.05;stroke-miterlimit:10;" d="M391.251,143.654"/>
				</g>
			</g>
		</g>
		<g>
			<g>
				<g>
					<g>
						<g>
							<path style="fill:#263238;" d="M474.911,125.79c-3.812-6.441-10.696-10.62-17.912-12.608
								c-3.036-0.837-5.095-0.604-8.225-0.251c-3.129,0.353-6.088,1.552-8.269,3.824c-2.591,2.698-4.896,5.811-5.859,9.425
								c-0.989,3.713-1.983,7.451-2.276,11.283c-0.293,3.831,0.155,7.803,1.916,11.217l9.383,3.144
								c5.295,0.993,10.665,1.99,16.036,1.567c5.371-0.424,10.835-2.445,14.305-6.566
								C478.831,141.098,478.723,132.232,474.911,125.79z"/>
						</g>
					</g>
				</g>
			</g>
			<g>
				<g>
					<g>
						<g>
							<path style="fill:#263238;" d="M479.984,154.032c0.092-2.211-0.722-4.522-2.436-5.922c-1.714-1.4-4.363-1.686-6.164-0.4
								l-1.789,1.574c-2.528,0.649-4.432,3.12-4.535,5.728c-0.104,2.608,1.524,5.169,3.876,6.298
								c2.353,1.129,5.294,0.831,7.449-0.641C478.54,159.198,479.875,156.64,479.984,154.032z"/>
						</g>
					</g>
				</g>
			</g>
			<g>
				<g>
					<g>
						<g>
							<g>
								<path style="fill:#455A64;" d="M477.083,160.24c-0.066-0.044,0.697-0.558,0.811-1.839c0.107-1.246-0.542-2.999-1.546-4.669
									c-1.027-1.681-2.349-2.924-3.39-3.685c-1.037-0.778-1.779-1.118-1.743-1.193c0.017-0.045,0.818,0.187,1.936,0.916
									c1.12,0.709,2.536,1.964,3.604,3.712c0.536,0.868,0.935,1.763,1.197,2.608c0.269,0.84,0.388,1.667,0.277,2.352
									c-0.102,0.687-0.405,1.186-0.665,1.462C477.3,160.183,477.098,160.263,477.083,160.24z"/>
							</g>
						</g>
					</g>
				</g>
			</g>
			<g>
				<g>
					<g>
						<g>
							<g>
								<path style="fill:#455A64;" d="M471.986,162.375c-0.156-0.033,0.944-2.847,0.541-6.43c-0.35-3.59-2.011-6.113-1.865-6.179
									c0.044-0.03,0.518,0.548,1.055,1.625c0.539,1.072,1.09,2.669,1.286,4.504c0.189,1.835-0.018,3.511-0.322,4.672
									C472.379,161.731,472.035,162.395,471.986,162.375z"/>
							</g>
						</g>
					</g>
				</g>
			</g>
			<g>
				<g>
					<g>
						<g>
							<g>
								<g>
									<g>
										<g>
											<g>
												<g>
													<path style="fill:#FFBE9D;" d="M440.494,171.931c0.58-3.372,1.871-10.599,1.868-10.584c0,0-7.727-2.064-8.363-12.467
														c-0.316-5.174,0.748-13.504,1.839-20.291c0.982-6.11,7.461-13.645,15.018-12.52l3.416,0.122l12.07,7.066
														c1.842,0.377,3.089,2.1,2.871,3.968l-6.613,43.682l-18.71,36.612l-4.226-25.973L440.494,171.931z"/>
												</g>
											</g>
										</g>
									</g>
								</g>
							</g>
						</g>
					</g>
					<g>
						<g>
							<g>
								<g>
									<g>
										<g>
											<g>
												<g>
													<g>
														<g>
															<g>
																<g>
																	<g>
																		<g>
																			<g>
																				<g>
																					<g>
																						<g>
																							<g>
																								<g>
																									<g>
																										<g>
																											<path style="fill:#263238;" d="M439.319,136.045c-0.092,0.692,0.418,1.34,1.139,1.449
																												c0.719,0.109,1.377-0.362,1.469-1.054c0.092-0.691-0.418-1.34-1.137-1.449
																												C440.069,134.882,439.41,135.354,439.319,136.045z"/>
																										</g>
																									</g>
																								</g>
																							</g>
																						</g>
																					</g>
																				</g>
																			</g>
																		</g>
																	</g>
																</g>
															</g>
														</g>
													</g>
												</g>
											</g>
										</g>
									</g>
								</g>
								<g>
									<g>
										<g>
											<g>
												<g>
													<g>
														<g>
															<g>
																<g>
																	<g>
																		<g>
																			<g>
																				<g>
																					<g>
																						<g>
																							<g>
																								<g>
																									<g>
																										<g>
																											<g>
																												<path style="fill:#263238;" d="M437.765,132.742c0.146,0.187,1.213-0.453,2.627-0.313
																													c1.414,0.12,2.381,0.948,2.552,0.79c0.083-0.069-0.054-0.395-0.473-0.767
																													c-0.413-0.37-1.141-0.762-2.022-0.844c-0.881-0.08-1.654,0.172-2.112,0.463
																													C437.869,132.362,437.692,132.658,437.765,132.742z"/>
																											</g>
																										</g>
																									</g>
																								</g>
																							</g>
																						</g>
																					</g>
																				</g>
																			</g>
																		</g>
																	</g>
																</g>
															</g>
														</g>
													</g>
												</g>
											</g>
										</g>
									</g>
								</g>
								<g>
									<g>
										<g>
											<g>
												<g>
													<g>
														<g>
															<g>
																<g>
																	<g>
																		<g>
																			<g>
																				<g>
																					<g>
																						<g>
																							<g>
																								<g>
																									<g>
																										<g>
																											<path style="fill:#263238;" d="M444.958,144.709c0.014-0.08-0.85-0.316-2.257-0.637
																												c-0.357-0.072-0.692-0.177-0.729-0.429c-0.06-0.269,0.129-0.644,0.345-1.047
																												c0.424-0.841,0.868-1.723,1.334-2.646c1.861-3.771,3.247-6.886,3.094-6.959
																												c-0.153-0.074-1.785,2.923-3.647,6.694c-0.45,0.931-0.881,1.818-1.29,2.667
																												c-0.177,0.397-0.456,0.84-0.324,1.399c0.071,0.279,0.317,0.501,0.543,0.585
																												c0.225,0.093,0.427,0.116,0.605,0.145C444.056,144.697,444.945,144.789,444.958,144.709z"/>
																										</g>
																									</g>
																								</g>
																							</g>
																						</g>
																					</g>
																				</g>
																			</g>
																		</g>
																	</g>
																</g>
															</g>
														</g>
													</g>
												</g>
											</g>
										</g>
									</g>
								</g>
								<g>
									<g>
										<g>
											<g>
												<g>
													<g>
														<g>
															<g>
																<g>
																	<g>
																		<g>
																			<g>
																				<g>
																					<g>
																						<g>
																							<g>
																								<g>
																									<g>
																										<path style="fill:#EB996E;" d="M442.362,161.347c0,0,6.85,1.111,14.076-2.332
																											c0,0-4.343,6.748-14.505,4.797L442.362,161.347z"/>
																									</g>
																								</g>
																							</g>
																						</g>
																					</g>
																				</g>
																			</g>
																		</g>
																	</g>
																</g>
															</g>
														</g>
													</g>
												</g>
											</g>
										</g>
									</g>
								</g>
								<g>
									<g>
										<g>
											<g>
												<g>
													<g>
														<g>
															<g>
																<g>
																	<g>
																		<g>
																			<g>
																				<g>
																					<g>
																						<g>
																							<g>
																								<g>
																									<g>
																										<g>
																											<g>
																												<g>
																													<path style="fill:#263238;" d="M438.874,127.754c0.218,0.345,1.224,0.106,2.397,0.204
																														c1.176,0.057,2.143,0.425,2.403,0.111c0.116-0.153-0.009-0.49-0.413-0.836
																														c-0.398-0.344-1.088-0.661-1.896-0.715c-0.807-0.052-1.533,0.171-1.972,0.461
																														C438.947,127.269,438.779,127.587,438.874,127.754z"/>
																												</g>
																											</g>
																										</g>
																									</g>
																								</g>
																							</g>
																						</g>
																					</g>
																				</g>
																			</g>
																		</g>
																	</g>
																</g>
															</g>
														</g>
													</g>
												</g>
											</g>
										</g>
									</g>
								</g>
								<g>
									<g>
										<g>
											<g>
												<g>
													<g>
														<g>
															<g>
																<g>
																	<g>
																		<g>
																			<g>
																				<g>
																					<g>
																						<g>
																							<g>
																								<g>
																									<g>
																										<g>
																											<path style="fill:#263238;" d="M455.489,137.079c-0.069,0.694-0.713,1.208-1.439,1.15
																												c-0.725-0.058-1.258-0.667-1.19-1.361c0.069-0.694,0.713-1.209,1.438-1.151
																												C455.025,135.775,455.558,136.385,455.489,137.079z"/>
																										</g>
																									</g>
																								</g>
																							</g>
																						</g>
																					</g>
																				</g>
																			</g>
																		</g>
																	</g>
																</g>
															</g>
														</g>
													</g>
												</g>
											</g>
										</g>
									</g>
								</g>
								<g>
									<g>
										<g>
											<g>
												<g>
													<g>
														<g>
															<g>
																<g>
																	<g>
																		<g>
																			<g>
																				<g>
																					<g>
																						<g>
																							<g>
																								<g>
																									<g>
																										<g>
																											<g>
																												<path style="fill:#263238;" d="M456.479,133.918c-0.185,0.149-1.078-0.718-2.486-0.904
																													c-1.404-0.206-2.535,0.38-2.664,0.186c-0.065-0.086,0.142-0.372,0.636-0.639
																													c0.487-0.266,1.285-0.482,2.162-0.36c0.876,0.123,1.571,0.545,1.95,0.933
																													C456.464,133.524,456.569,133.853,456.479,133.918z"/>
																											</g>
																										</g>
																									</g>
																								</g>
																							</g>
																						</g>
																					</g>
																				</g>
																			</g>
																		</g>
																	</g>
																</g>
															</g>
														</g>
													</g>
												</g>
											</g>
										</g>
									</g>
								</g>
								<g>
									<g>
										<g>
											<g>
												<g>
													<g>
														<g>
															<g>
																<g>
																	<g>
																		<g>
																			<g>
																				<g>
																					<g>
																						<g>
																							<g>
																								<g>
																									<g>
																										<g>
																											<g>
																												<g>
																													<path style="fill:#263238;" d="M456.266,129.097c-0.29,0.286-1.216-0.176-2.38-0.349
																														c-1.158-0.213-2.183-0.075-2.365-0.44c-0.078-0.176,0.121-0.475,0.593-0.72
																														c0.466-0.244,1.21-0.395,2.009-0.263c0.798,0.134,1.453,0.517,1.815,0.899
																														C456.305,128.608,456.396,128.956,456.266,129.097z"/>
																												</g>
																											</g>
																										</g>
																									</g>
																								</g>
																							</g>
																						</g>
																					</g>
																				</g>
																			</g>
																		</g>
																	</g>
																</g>
															</g>
														</g>
													</g>
												</g>
											</g>
										</g>
									</g>
								</g>
							</g>
						</g>
					</g>
				</g>
			</g>
			<g>
				<g>
					<g>
						<g>
							<g>
								<path style="fill:#263238;" d="M467.041,141.575l-2.038,1.557c-6.49-8.431-18.563-28.906-17.899-27.694
									c0,0,5.532-1.347,11.035,0.477c5.503,1.824,15.789,6.286,14.608,12.924C471.566,135.477,467.041,141.575,467.041,141.575z"
									/>
							</g>
						</g>
					</g>
				</g>
			</g>
			<g>
				<g>
					<g>
						<g>
							<g>
								<path style="fill:#455A64;" d="M471.244,148.111c-0.041-0.008,0.059-0.581,0.177-1.619c0.122-1.037,0.204-2.552,0.081-4.411
									c-0.214-3.711-1.579-8.825-4.621-13.648c-3.046-4.826-6.867-8.406-9.715-10.811c-1.431-1.205-2.63-2.136-3.462-2.773
									c-0.832-0.638-1.291-0.994-1.271-1.023c0.009-0.013,0.137,0.057,0.371,0.205c0.233,0.149,0.578,0.367,1.009,0.668
									c0.868,0.593,2.101,1.484,3.567,2.663c2.916,2.35,6.816,5.924,9.905,10.818c3.088,4.894,4.425,10.115,4.554,13.883
									c0.081,1.888-0.054,3.418-0.234,4.456c-0.068,0.523-0.184,0.918-0.239,1.189
									C471.302,147.975,471.26,148.115,471.244,148.111z"/>
							</g>
						</g>
					</g>
				</g>
			</g>
			<g>
				<g>
					<g>
						<g>
							<g>
								<path style="fill:#455A64;" d="M456.856,114.084c0.009-0.014,0.141,0.053,0.384,0.194c0.245,0.139,0.598,0.356,1.047,0.645
									c0.897,0.579,2.176,1.45,3.686,2.623c1.509,1.172,3.252,2.642,5.062,4.409c1.793,1.771,3.751,3.788,5.306,6.297
									c0.776,1.25,1.379,2.575,1.771,3.914c0.385,1.342,0.546,2.689,0.557,3.964c0.014,2.559-0.501,4.815-1.031,6.649
									c-0.543,1.837-1.107,3.278-1.507,4.267c-0.2,0.495-0.365,0.875-0.482,1.13c-0.116,0.256-0.185,0.387-0.2,0.381
									c-0.033-0.013,0.16-0.571,0.508-1.577c0.346-1.007,0.859-2.461,1.355-4.292c0.484-1.828,0.955-4.059,0.917-6.551
									c-0.022-1.242-0.188-2.545-0.566-3.84c-0.384-1.292-0.97-2.574-1.728-3.794c-1.515-2.448-3.441-4.455-5.207-6.234
									c-1.78-1.772-3.488-3.259-4.963-4.458c-1.475-1.2-2.718-2.11-3.58-2.734C457.32,114.453,456.836,114.115,456.856,114.084z"
									/>
							</g>
						</g>
					</g>
				</g>
			</g>
			<g>
				<g>
					<g>
						<g>
							<g>
								<path style="fill:#455A64;" d="M467.151,141.769c-0.028,0.017-0.302-0.345-0.772-1.014c-0.514-0.752-1.17-1.711-1.955-2.86
									c-1.633-2.426-3.861-5.795-6.296-9.531c-2.436-3.738-4.619-7.136-6.18-9.609c-0.734-1.182-1.347-2.169-1.827-2.943
									c-0.423-0.701-0.643-1.097-0.616-1.116c0.027-0.018,0.3,0.343,0.771,1.012c0.514,0.752,1.169,1.711,1.954,2.859
									c1.633,2.426,3.862,5.796,6.299,9.535c2.437,3.738,4.62,7.137,6.181,9.611c0.734,1.181,1.347,2.169,1.827,2.942
									C466.958,141.355,467.178,141.751,467.151,141.769z"/>
							</g>
						</g>
					</g>
				</g>
			</g>
			<g>
				<g>
					<g>
						<g>
							<g>
								<g>
									<g>
										<g>
											<g>
												<g>
													<g>
														<g>
															<g>
																<g>
																	<g>
																		<g>
																			<g>
																				<g>
																					<g>
																						<path style="fill:#FFBE9D;" d="M465.094,144.279c0.076-0.763,1.132-2.476,1.897-2.521
																							c2.043-0.119,5.654,0.394,5.193,5.507c-0.63,6.99-7.518,4.916-7.512,4.714
																							C464.676,151.822,464.833,146.913,465.094,144.279z"/>
																					</g>
																				</g>
																			</g>
																		</g>
																	</g>
																</g>
															</g>
														</g>
													</g>
												</g>
											</g>
										</g>
									</g>
								</g>
							</g>
						</g>
					</g>
				</g>
				<g>
					<g>
						<g>
							<g>
								<g>
									<g>
										<g>
											<g>
												<g>
													<g>
														<g>
															<g>
																<g>
																	<g>
																		<g>
																			<g>
																				<g>
																					<g>
																						<g>
																							<path style="fill:#EB996E;" d="M466.6,149.354c0.033-0.02,0.114,0.096,0.311,0.209
																								c0.193,0.11,0.532,0.205,0.909,0.101c0.763-0.204,1.49-1.321,1.638-2.578
																								c0.075-0.635-0.003-1.252-0.184-1.775c-0.167-0.531-0.466-0.918-0.832-1.017
																								c-0.362-0.119-0.645,0.08-0.749,0.268c-0.112,0.187-0.079,0.331-0.118,0.339
																								c-0.021,0.016-0.14-0.13-0.057-0.414c0.042-0.136,0.138-0.294,0.315-0.414
																								c0.18-0.121,0.433-0.169,0.689-0.117c0.536,0.086,0.976,0.626,1.174,1.199
																								c0.227,0.578,0.331,1.274,0.246,1.987c-0.172,1.404-1.011,2.658-2.048,2.859
																								c-0.503,0.084-0.9-0.101-1.097-0.285C466.598,149.524,466.575,149.365,466.6,149.354z"/>
																						</g>
																					</g>
																				</g>
																			</g>
																		</g>
																	</g>
																</g>
															</g>
														</g>
													</g>
												</g>
											</g>
										</g>
									</g>
								</g>
							</g>
						</g>
					</g>
				</g>
			</g>
		</g>
		<g>
			<g>
				<g>
					<g>
						<g>
							<path style="fill:#FFBE9D;" d="M481.511,403.079c-0.142,1.101-2.854,31.856-2.854,31.856h-14.09l-2.47-31.727
								L481.511,403.079z"/>
						</g>
					</g>
				</g>
			</g>
			<g>
				<g>
					<g>
						<g>
							<g>
								<g>
									<path style="fill:#FF725E;" d="M464.532,430.354c0,0,9.894,7.022,14.682,0.943l1.252,2.945l5.626,20.985
										c0.364,1.358-0.273,2.856-1.583,3.369c-1.008,0.395-2.119,0.172-2.879-0.55c-4.07-3.871-18.969-18.186-18.824-20.128
										l0.057-5.153C462.877,431.697,463.537,430.743,464.532,430.354L464.532,430.354z"/>
								</g>
							</g>
						</g>
					</g>
				</g>
				<g>
					<g>
						<g>
							<g>
								<g>
									<path style="fill:#263238;" d="M484.025,458.738L462.8,436.126l0.005,1.125c-0.106,1.22,0.427,1.702,1.006,2.483
										c1.717,2.316,6.47,7.496,17.74,18.312C482.206,458.676,483.138,458.937,484.025,458.738L484.025,458.738z"/>
								</g>
							</g>
						</g>
					</g>
				</g>
				<g>
					<g>
						<g>
							<g>
								<g>
									<g>
										<path style="fill:#FFFFFF;" d="M465.909,432.773c0.667,0.457,0.889,1.463,0.459,2.149c-0.43,0.686-1.451,0.92-2.126,0.474
											c-0.675-0.445-0.978-1.645-0.475-2.278c0.504-0.633,1.717-0.843,2.266-0.248"/>
									</g>
								</g>
							</g>
						</g>
					</g>
				</g>
				<g>
					<g>
						<g>
							<g>
								<g>
									<g>
										<path style="fill:#263238;" d="M477.906,447.157c0.15,0.073,0.744-1.321,2.321-2.076c1.554-0.802,3.023-0.433,3.056-0.598
											c0.023-0.065-0.314-0.27-0.936-0.355c-0.617-0.088-1.515,0.003-2.379,0.431c-0.863,0.431-1.478,1.092-1.779,1.637
											C477.88,446.743,477.84,447.136,477.906,447.157z"/>
									</g>
								</g>
							</g>
						</g>
					</g>
				</g>
				<g>
					<g>
						<g>
							<g>
								<g>
									<g>
										<path style="fill:#263238;" d="M479.812,450.707c0.127,0.114,0.976-0.753,2.348-1.152c1.363-0.429,2.55-0.179,2.593-0.345
											c0.076-0.136-1.205-0.694-2.762-0.213C480.43,449.46,479.674,450.635,479.812,450.707z"/>
									</g>
								</g>
							</g>
						</g>
					</g>
				</g>
				<g>
					<g>
						<g>
							<g>
								<g>
									<g>
										<path style="fill:#263238;" d="M474.365,442.612c0.125,0.126,1.424-1.215,3.504-2.022c2.068-0.84,3.932-0.758,3.936-0.935
											c0.043-0.142-1.932-0.503-4.152,0.393C475.426,440.92,474.237,442.539,474.365,442.612z"/>
									</g>
								</g>
							</g>
						</g>
					</g>
				</g>
				<g>
					<g>
						<g>
							<g>
								<g>
									<g>
										<path style="fill:#263238;" d="M473.894,436.224c0.072,0.159,1.536-0.46,3.446-0.537c1.908-0.103,3.425,0.376,3.481,0.211
											c0.073-0.13-1.457-0.899-3.508-0.794C475.261,435.192,473.809,436.101,473.894,436.224z"/>
									</g>
								</g>
							</g>
						</g>
					</g>
				</g>
				<g>
					<g>
						<g>
							<g>
								<g>
									<g>
										<path style="fill:#263238;" d="M478.427,435.63c0.033-0.006,0.027-0.368-0.149-0.994
											c-0.176-0.621-0.534-1.518-1.269-2.439c-0.373-0.432-0.784-1.001-1.577-1.208c-0.395-0.106-0.922,0.063-1.167,0.466
											c-0.244,0.394-0.261,0.841-0.192,1.256c0.338,1.652,2.061,2.989,3.969,2.878c1.91-0.145,3.405-1.531,3.879-3.101
											c0.093-0.401,0.12-0.876-0.165-1.279c-0.282-0.408-0.846-0.486-1.208-0.352c-0.754,0.261-1.159,0.799-1.553,1.216
											c-0.764,0.892-1.178,1.757-1.402,2.362c-0.224,0.609-0.265,0.969-0.232,0.977c0.105,0.051,0.42-1.406,1.941-3.064
											c0.389-0.389,0.831-0.871,1.379-1.027c0.267-0.078,0.521-0.014,0.66,0.188c0.139,0.192,0.146,0.53,0.059,0.847
											c-0.407,1.288-1.777,2.552-3.393,2.65c-1.607,0.11-3.12-1.067-3.405-2.395c-0.064-0.32-0.039-0.66,0.097-0.882
											c0.134-0.22,0.381-0.319,0.64-0.267c0.546,0.11,0.99,0.594,1.354,0.998C478.151,434.172,478.316,435.678,478.427,435.63z"
											/>
									</g>
								</g>
							</g>
						</g>
					</g>
				</g>
			</g>
		</g>
		<g>
			<g>
				<g>
					<polygon style="fill:#FFBE9D;" points="404.138,393.071 406.566,432.326 423.629,432.207 426.512,391.422 					"/>
				</g>
			</g>
			<g>
				<g>
					<path style="fill:#FF725E;" d="M406.256,427.593l-0.009,1.135c0,0-19.269,7.648-19.488,11.297l38.199-0.04l-0.533-12.711
						C418.749,429.91,412.805,430.213,406.256,427.593z"/>
				</g>
			</g>
			<g>
				<g>
					<path style="fill:#FFFFFF;" d="M420.561,431.342c0.74,0.202,1.251,1.032,1.08,1.779c-0.171,0.747-1.011,1.275-1.754,1.086
						c-0.743-0.188-1.388-1.167-1.134-1.89c0.253-0.723,1.274-1.289,1.95-0.928"/>
				</g>
			</g>
			<g>
				<g>
					<path style="fill:#263238;" d="M424.958,439.985l-0.128-3.057l-36.564,1.158c0,0-1.7,0.742-1.507,1.939L424.958,439.985z"/>
				</g>
			</g>
			<g>
				<g>
					<path style="fill:#263238;" d="M406.113,428.835c0.006,0.187,0.939,0.27,1.857,0.869c0.934,0.575,1.408,1.382,1.579,1.308
						c0.172-0.036-0.107-1.151-1.232-1.857C407.2,428.44,406.073,428.664,406.113,428.835z"/>
				</g>
			</g>
			<g>
				<g>
					<path style="fill:#263238;" d="M402.108,430.496c-0.042,0.181,0.766,0.497,1.4,1.286c0.657,0.769,0.818,1.622,1.004,1.614
						c0.175,0.029,0.303-1.064-0.504-2.029C403.21,430.396,402.112,430.318,402.108,430.496z"/>
				</g>
			</g>
			<g>
				<g>
					<path style="fill:#263238;" d="M399.838,435.294c0.17,0.04,0.428-0.893-0.052-1.913c-0.473-1.025-1.353-1.427-1.432-1.271
						c-0.105,0.154,0.462,0.701,0.843,1.545C399.598,434.489,399.653,435.276,399.838,435.294z"/>
				</g>
			</g>
		</g>
		<g>
			<g>
				<g>
					<path style="fill:#263238;" d="M426.508,271.572c-0.507,1.47-20.741,70.014-20.741,70.014l-3.481,81.331l25.186,1.453
						l9.014-81.205l23.006-50.789l-10.11-41.316h-20.578L426.508,271.572z"/>
				</g>
			</g>
			<g>
				<g>
					<path style="fill:#263238;" d="M444.434,251.061c0.358,0.979,13.265,47.497,13.265,47.497l1.793,69.344v57.365h22.945
						l10.693-126.52c0,0,1.887-22.958-1.339-30.731c-3.227-7.772-16.308-21.309-16.308-21.309L444.434,251.061z"/>
				</g>
			</g>
			<g>
				<g>
					<g>
						<path style="fill:#455A64;" d="M446.278,255.818c0.035-0.009,0.218,0.569,0.52,1.62c0.331,1.134,0.768,2.632,1.297,4.444
							c1.151,3.824,2.697,8.957,4.404,14.63c1.694,5.726,3.082,10.958,3.883,14.793c0.414,1.914,0.689,3.476,0.847,4.56
							c0.157,1.084,0.227,1.685,0.191,1.691c-0.035,0.005-0.173-0.585-0.391-1.655c-0.219-1.07-0.548-2.616-1.007-4.514
							c-0.891-3.803-2.331-9.006-4.024-14.727c-1.695-5.718-3.246-10.896-4.259-14.677c-0.513-1.888-0.897-3.425-1.138-4.493
							C446.36,256.421,446.243,255.827,446.278,255.818z"/>
					</g>
				</g>
			</g>
			<g>
				<g>
					<g>
						<path style="fill:#455A64;" d="M454.198,255.818c0.036,0.086-0.802,0.107-1.438,1.033c-0.301,0.443-0.478,1.113-0.201,1.754
							c0.253,0.632,0.922,1.215,1.702,1.255c0.781,0.032,1.501-0.487,1.811-1.092c0.336-0.613,0.221-1.296-0.038-1.765
							c-0.547-0.98-1.38-1.08-1.336-1.162c0.003-0.029,0.197-0.052,0.526,0.058c0.324,0.108,0.781,0.383,1.127,0.917
							c0.346,0.51,0.549,1.375,0.15,2.168c-0.367,0.767-1.227,1.432-2.264,1.398c-1.036-0.062-1.831-0.803-2.125-1.601
							c-0.324-0.826-0.043-1.668,0.349-2.144c0.394-0.5,0.874-0.731,1.207-0.809C454.006,255.748,454.197,255.789,454.198,255.818z"
							/>
					</g>
				</g>
			</g>
			<g>
				<g>
					<g>
						<path style="fill:#455A64;" d="M474.573,289.219c0.009,0,0.017,0.118,0.025,0.349c0.005,0.258,0.012,0.597,0.021,1.025
							c0.007,0.933,0.017,2.255,0.03,3.941c0.022,3.423-0.015,8.375-0.113,14.494c-0.181,12.238-0.729,29.137-1.446,47.794
							c-0.717,18.663-1.323,35.557-1.598,47.789c-0.144,6.116-0.238,11.066-0.278,14.487c-0.029,1.686-0.052,3.007-0.068,3.939
							c-0.013,0.428-0.023,0.767-0.031,1.025c-0.01,0.231-0.019,0.349-0.028,0.349c-0.009,0-0.017-0.118-0.025-0.349
							c-0.005-0.258-0.012-0.596-0.021-1.025c-0.007-0.933-0.017-2.254-0.03-3.94c-0.022-3.422,0.015-8.374,0.112-14.493
							c0.181-12.238,0.729-29.139,1.446-47.802c0.717-18.657,1.323-35.549,1.598-47.781c0.144-6.116,0.238-11.066,0.278-14.488
							c0.029-1.686,0.052-3.007,0.068-3.94c0.013-0.428,0.023-0.767,0.031-1.025C474.555,289.337,474.564,289.219,474.573,289.219z"
							/>
					</g>
				</g>
			</g>
			<g>
				<g>
					<g>
						<path style="fill:#455A64;" d="M439.162,280.866c0.008,0.003-0.031,0.124-0.116,0.358c-0.097,0.256-0.225,0.597-0.389,1.03
							c-0.365,0.929-0.884,2.251-1.546,3.94c-1.375,3.44-3.346,8.371-5.776,14.451c-2.397,6.115-5.225,13.412-7.888,21.674
							c-2.643,8.252-5.255,17.489-6.349,27.436c-0.523,4.972-0.754,9.872-1.059,14.586c-0.256,4.72-0.502,9.273-0.737,13.612
							c-0.447,8.672-0.85,16.483-1.188,23.055c-0.359,6.562-0.7,11.87-0.976,15.534c-0.146,1.808-0.261,3.224-0.341,4.218
							c-0.044,0.461-0.079,0.823-0.105,1.096c-0.027,0.247-0.045,0.373-0.054,0.372c-0.009-0.001-0.009-0.128,0-0.376
							c0.013-0.274,0.031-0.637,0.054-1.099c0.057-0.996,0.139-2.413,0.244-4.224c0.213-3.668,0.498-8.977,0.81-15.54
							c0.307-6.573,0.672-14.386,1.077-23.06c0.225-4.34,0.462-8.895,0.707-13.617c0.298-4.722,0.525-9.609,1.051-14.612
							c1.101-10.008,3.737-19.268,6.411-27.529c2.694-8.271,5.561-15.561,8.002-21.662c2.455-6.097,4.518-10.999,5.93-14.392
							c0.702-1.673,1.251-2.982,1.637-3.903c0.184-0.425,0.328-0.759,0.437-1.011C439.097,280.977,439.153,280.863,439.162,280.866z
							"/>
					</g>
				</g>
			</g>
		</g>
		<g>
			<g>
				<path style="fill:#FF725E;" d="M473.778,169.204c0,0,13.654,2.546,16.655,5.047c2.933,2.444,30.339,38.157,30.908,45.358
					c0.568,7.201-2.759,9.842-4.654,11.547s-34.57,23.888-34.57,23.888l-10.044-16.675l28.234-16.865l-13.627-23.311
					L473.778,169.204z"/>
			</g>
		</g>
		<g>
			<g>
				<g>
					<path style="fill:#FF725E;" d="M509.43,215.119c0.028,0.165-2.704,0.141-5.421,1.876c-2.749,1.684-3.923,4.151-4.06,4.053
						c-0.053-0.023,0.152-0.667,0.748-1.574c0.59-0.905,1.625-2.035,3.035-2.921c1.413-0.88,2.883-1.316,3.954-1.451
						C508.764,214.964,509.432,215.061,509.43,215.119z"/>
				</g>
			</g>
		</g>
		<g>
			<g>
				<g>
					<path style="fill:#FFFFFF;" d="M440.698,170.931l3.618,32.841l18.471-37.031l11.909,12.098c0,0,7.317,43.253,7.419,43.56
						c0.102,0.307-5.01,24.745-5.01,24.745l-33.845,6.544l-10.327-2.627l-1.636-38.467l-0.716-29.46L440.698,170.931z"/>
				</g>
			</g>
			<g>
				<g>
					<g>
						<g>
							<path style="fill:#FF725E;" d="M436.311,172.328l-8.791,2.043c-1.172,0.272-2.262,0.822-3.176,1.605
								c-7.506,6.422-23.719,20.007-23.719,20.007l2.982-24.105l-15.573-1.489c0,0-4.687,30.379-4.2,38.375
								c0.566,9.279,8.885,11.558,21.001,6.569c13.419-5.527,21.661-10.686,21.661-10.686L436.311,172.328z"/>
						</g>
					</g>
				</g>
			</g>
			<g>
				<g>
					<path style="fill:#FF725E;" d="M485.329,198.281l-1.604,28.801l1.612,5.602c0,0,15.159,28.613,17.623,47.562l-18.76,3.032
						c0,0-5.116-24.444-8.717-36.572c-3.6-12.128-14.212-17.244-17.812-29.75c-3.6-12.506-2.274-21.223-2.274-21.981
						c0-0.758,7.39-28.234,7.39-28.234l1.325-5.745l6.634,6.313l17.054,5.685L485.329,198.281z"/>
				</g>
			</g>
			<g style="opacity:0.3;">
				<g>
					<g>
						<path d="M494.274,251.835c0,0-6.453,4.931-9.717,6.614c-0.194,0.1-0.457,0.21-0.75,0.32c-1.392,0.523-2.957-0.074-3.67-1.379
							c-0.398-0.729-0.807-1.504-1.078-2.083c-0.694-1.483-1.439-3.274-2.104-4.825l2.104-0.515l3.058,5.077l8.82-6.044l1.681-1.152
							L494.274,251.835z"/>
					</g>
				</g>
			</g>
			<g>
				<g>
					<path style="fill:#FF725E;" d="M440.862,167.689l-4.102,4.289l-9.827,3.449c0,0-2.408,29.019-1.1,35.182
						c1.26,5.938,3.656,13.157,3.859,21.687c0.203,8.53-9.545,53.616-9.545,53.616l11.779,4.468c0,0,6.012-52.195,4.834-63.568
						c-1.178-11.373,1.868-34.323,1.868-34.323L440.862,167.689z"/>
				</g>
			</g>
			<g>
				<g>
					<g>
						<path style="fill:#263238;" d="M463.163,223.019c-0.014,0.012-0.162-0.15-0.434-0.472c-0.267-0.325-0.622-0.838-1.003-1.544
							c-0.747-1.417-1.421-3.698-1.522-6.562c-0.115-2.864,0.209-6.248,0.693-9.979c0.514-3.729,1.306-7.804,2.496-11.985
							c2.177-7.844,5.318-14.614,8.023-19.414l0.164,0.286c-1.55-0.05-2.938-0.094-4.171-0.134l-0.297-0.009l0.175-0.236
							c1.146-1.541,2.065-2.777,2.738-3.682c0.3-0.389,0.545-0.706,0.743-0.963c0.172-0.216,0.267-0.323,0.279-0.315
							c0.012,0.008-0.06,0.133-0.21,0.364c-0.181,0.269-0.404,0.602-0.677,1.01c-0.644,0.925-1.524,2.19-2.621,3.766l-0.122-0.245
							c1.234,0.017,2.622,0.036,4.173,0.057l0.318,0.004l-0.153,0.282c-2.621,4.821-5.695,11.57-7.86,19.368
							c-1.183,4.158-1.985,8.205-2.522,11.911c-0.507,3.707-0.867,7.079-0.8,9.9c0.053,2.826,0.658,5.065,1.335,6.485
							C462.598,222.332,463.212,222.983,463.163,223.019z"/>
					</g>
				</g>
			</g>
			<g>
				<g>
					<g>
						<path style="fill:#263238;" d="M474.697,196.407c0.026,0.137-2.122,0.648-4.826,0.92c-2.704,0.277-4.91,0.206-4.912,0.067
							c-0.004-0.148,2.179-0.311,4.86-0.585C472.499,196.54,474.671,196.262,474.697,196.407z"/>
					</g>
				</g>
			</g>
			<g>
				<g>
					<g>
						<path style="fill:#263238;" d="M486.663,189.734c0.038,0.01-0.053,0.528-0.21,1.458c-0.13,0.938-0.301,2.295-0.461,3.982
							c-0.322,3.372-0.647,8.044-0.964,13.207c-0.31,5.119-0.591,9.749-0.802,13.229c-0.112,1.693-0.217,3.062-0.304,4.007
							c-0.092,0.945-0.162,1.466-0.197,1.464c-0.036-0.003-0.034-0.528-0.005-1.476c0.036-1.045,0.082-2.394,0.138-4.014
							c0.132-3.389,0.337-8.072,0.65-13.242c0.318-5.167,0.701-9.843,1.118-13.216c0.207-1.686,0.435-3.045,0.627-3.977
							C486.473,190.227,486.632,189.725,486.663,189.734z"/>
					</g>
				</g>
			</g>
			<g>
				<g>
					<g>
						<path style="fill:#263238;" d="M508.494,222.424c-0.051,0.148-1.896-0.446-4.25-0.613c-2.353-0.187-4.266,0.126-4.294-0.029
							c-0.038-0.126,1.893-0.682,4.333-0.491C506.723,221.467,508.55,222.305,508.494,222.424z"/>
					</g>
				</g>
			</g>
			<g>
				<g>
					<g>
						<path style="fill:#263238;" d="M400.72,195.385c0.131,0.059-0.486,1.729-1.378,3.73c-0.893,2.002-1.723,3.577-1.854,3.518
							c-0.131-0.059,0.486-1.728,1.378-3.73C399.759,196.901,400.589,195.326,400.72,195.385z"/>
					</g>
				</g>
			</g>
			<g>
				<g>
					<g>
						<path style="fill:#263238;" d="M425.24,185.773c0.144-0.003,0.37,5.66,0.504,12.647c0.135,6.989,0.127,12.656-0.017,12.658
							c-0.144,0.003-0.369-5.659-0.504-12.648C425.088,191.443,425.096,185.776,425.24,185.773z"/>
					</g>
				</g>
			</g>
			<g>
				<g>
					<g>
						<path style="fill:#263238;" d="M436.898,209.552c-0.036,0.001-0.078-0.518-0.124-1.459c-0.038-1.039-0.087-2.378-0.146-3.987
							c-0.1-3.367-0.203-8.021-0.284-13.161c-0.081-5.142-0.125-9.797-0.131-13.165c0.008-1.609,0.015-2.95,0.02-3.989
							c0.016-0.942,0.042-1.462,0.078-1.462c0.036,0,0.078,0.521,0.124,1.463c0.038,1.039,0.087,2.379,0.146,3.988
							c0.1,3.367,0.203,8.019,0.284,13.158c0.081,5.137,0.125,9.79,0.131,13.158c-0.008,1.61-0.015,2.951-0.02,3.991
							C436.96,209.029,436.934,209.551,436.898,209.552z"/>
					</g>
				</g>
			</g>
			<g>
				<g>
					<g>
						<path style="fill:#263238;" d="M510.929,235.299c0.009,0.013-0.176,0.158-0.538,0.424c-0.4,0.287-0.932,0.67-1.602,1.15
							c-1.447,1.014-3.483,2.44-6.008,4.21c-5.173,3.572-12.344,8.524-20.519,14.17l-0.223,0.154l-0.14-0.233
							c-1.453-2.409-2.958-4.904-4.499-7.459c-1.924-3.199-3.791-6.305-5.543-9.217l-0.131-0.218l0.218-0.129
							c8.122-4.808,15.182-8.989,20.26-11.995c2.498-1.456,4.505-2.626,5.934-3.458c0.668-0.378,1.199-0.68,1.601-0.907
							c0.367-0.202,0.561-0.301,0.569-0.288c0.008,0.013-0.172,0.138-0.524,0.365c-0.391,0.246-0.908,0.571-1.558,0.979
							c-1.41,0.863-3.392,2.076-5.857,3.585c-5.054,3.046-12.082,7.281-20.166,12.152l0.087-0.347
							c1.756,2.91,3.628,6.012,5.557,9.209c1.538,2.557,3.04,5.053,4.49,7.465l-0.363-0.079c8.216-5.587,15.422-10.488,20.62-14.023
							c2.562-1.717,4.627-3.101,6.094-4.084c0.69-0.451,1.239-0.809,1.651-1.079C510.718,235.406,510.92,235.287,510.929,235.299z"
							/>
					</g>
				</g>
			</g>
			<g style="opacity:0.3;">
				<g>
					<g>
						<path d="M461.788,220.859c-0.485-4.272,0.23-8.588,1.159-12.787c2.582-11.672,6.848-22.97,12.624-33.436
							c-1.268-0.857-3.069-0.477-4.258,0.488c-1.189,0.964-1.9,2.385-2.545,3.773c-4.371,9.412-7.249,19.562-8.248,29.891
							c-0.233,2.406-0.35,3.953-0.151,6.045c0.199,2.092,0.201,4.294,1.502,5.945"/>
					</g>
				</g>
			</g>
			<g style="opacity:0.3;">
				<g>
					<g>
						<path d="M425.206,187.868c-3.108,5.407-2.695,11.905,0.277,17.387c0-6.03,0-11.256-0.361-17.304"/>
					</g>
				</g>
			</g>
		</g>
		<g>
			<g>
				<path style="fill:#EB996E;" d="M449.39,147.81c-0.08-0.351-0.25-0.714-0.574-0.87c-0.2-0.096-0.431-0.1-0.653-0.097
					c-1.299,0.019-2.596,0.204-3.849,0.55l-0.072,0.198c0.08,0.556,0.162,1.117,0.345,1.648c0.184,0.531,0.478,1.038,0.918,1.387
					c0.819,0.65,2.08,0.619,2.913-0.013C449.251,149.981,449.623,148.829,449.39,147.81z"/>
			</g>
		</g>
		<g>
			<g>
				<g>
					<path style="fill:#263238;" d="M445.532,150.865c0.019-0.088,0.661,0.183,1.62-0.095c0.466-0.143,0.993-0.439,1.346-0.961
						c0.353-0.513,0.539-1.243,0.358-1.936c-0.083-0.344-0.262-0.65-0.499-0.773c-0.233-0.127-0.567-0.084-0.896-0.017
						c-0.618,0.116-1.218,0.229-1.806,0.34c-1.032,0.179-1.678,0.254-1.693,0.184c-0.016-0.07,0.602-0.273,1.614-0.543
						c0.581-0.146,1.173-0.295,1.784-0.449c0.333-0.072,0.771-0.187,1.23,0.032c0.444,0.232,0.665,0.679,0.771,1.098
						c0.223,0.866-0.024,1.742-0.473,2.345c-0.455,0.618-1.109,0.927-1.646,1.038C446.123,151.338,445.492,150.902,445.532,150.865z
						"/>
				</g>
			</g>
		</g>
		<g>
			<g>
				<path style="fill:#FAFAFA;" d="M467.347,151.87c-0.268-0.709-1.142-1.309-1.878-1.133l0.019,0.003
					c-0.435,0.04-0.864,0.306-1.104,0.683c-0.406,0.639-0.332,1.549,0.183,2.105c0.515,0.556,1.427,0.697,2.079,0.312
					C467.298,153.456,467.615,152.578,467.347,151.87z"/>
			</g>
		</g>
		<g>
			<g>
				<path style="fill:#FFBE9D;" d="M472.506,239.362l-11.563-10.253l-9.769,0.842c0,0,0.337,1.6,1.684,1.853
					c1.347,0.253,6.232,0.337,6.232,0.337l2.289,2.274l-5.826-0.587l-7.411,4.377c0,0-0.168,1.347,1.768,1.011
					c1.937-0.337,5.642-1.853,5.642-1.853l4.309,0.253l-4.703,0.674l-6.09,4.295c0,0,1.263,1.432,3.2,0.842
					c1.937-0.589,4.295-1.516,4.295-1.516l5.306-0.505l-5.306,1.348l-3.958,4.884c0,0,1.232,0.926,2.553,0
					c1.321-0.926,2.247-1.769,2.247-1.769l5.895-0.253c0,0,6.512,4.716,8.772,5.221c2.26,0.505,6.987-0.869,6.987-0.869
					L472.506,239.362z"/>
			</g>
		</g>
	</g>
</g>
<g id="Job_offers">
	<g>
		<g>
			<g>
				<g>
					<rect x="522.537" y="287.588" style="fill:#FAFAFA;" width="179.295" height="100.254"/>
				</g>
			</g>
			<g>
				<g>
					<g>
						<path style="fill:#263238;" d="M701.831,387.842c0,0-0.014-0.618-0.021-1.801c-0.005-1.189-0.012-2.943-0.022-5.237
							c-0.012-4.598-0.029-11.357-0.05-20.041c-0.025-17.354-0.061-42.393-0.106-73.176l0.199,0.199
							c-47.827,0.016-110.669,0.038-179.281,0.061h-0.013l0.26-0.26c-0.006,35.452-0.012,69.359-0.017,100.254l-0.243-0.243
							c52.474,0.048,97.266,0.089,128.95,0.118c15.854,0.028,28.427,0.051,37.045,0.066c4.307,0.013,7.624,0.023,9.874,0.03
							c1.118,0.006,1.969,0.011,2.551,0.015C701.531,387.832,701.831,387.842,701.831,387.842s-0.28,0.01-0.845,0.015
							c-0.575,0.003-1.417,0.008-2.523,0.015c-2.239,0.007-5.539,0.017-9.825,0.03c-8.606,0.015-21.16,0.038-36.99,0.066
							c-31.723,0.029-76.571,0.07-129.112,0.118l-0.243,0v-0.243c-0.005-30.895-0.011-64.802-0.017-100.254v-0.26h0.26h0.013
							c68.612,0.023,131.454,0.045,179.281,0.061l0.2,0l0,0.199c-0.044,30.834-0.081,55.916-0.106,73.299
							c-0.022,8.664-0.039,15.408-0.05,19.996c-0.01,2.278-0.017,4.019-0.022,5.2C701.845,387.253,701.831,387.842,701.831,387.842z
							"/>
					</g>
				</g>
			</g>
		</g>
		<g>
			<g>
				<rect x="544.448" y="311.483" style="fill:#455A64;" width="25.347" height="25.347"/>
			</g>
		</g>
		<g>
			<g>
				<g>
					<path style="fill:#FF725E;" d="M604.608,315.045c0,0.144-5.916,0.26-13.212,0.26c-7.299,0-13.213-0.117-13.213-0.26
						c0-0.144,5.915-0.26,13.213-0.26C598.692,314.784,604.608,314.901,604.608,315.045z"/>
				</g>
			</g>
		</g>
		<g>
			<g>
				<g>
					<path style="fill:#263238;" d="M689.017,324.157c0,0.144-24.813,0.26-55.414,0.26c-30.612,0-55.42-0.116-55.42-0.26
						c0-0.144,24.808-0.26,55.42-0.26C664.204,323.897,689.017,324.013,689.017,324.157z"/>
				</g>
			</g>
		</g>
		<g>
			<g>
				<g>
					<path style="fill:#263238;" d="M651.727,334.38c0,0.144-16.304,0.26-36.412,0.26c-20.115,0-36.415-0.117-36.415-0.26
						c0-0.144,16.301-0.26,36.415-0.26C635.423,334.12,651.727,334.236,651.727,334.38z"/>
				</g>
			</g>
		</g>
		<g>
			<g>
				<path style="fill:#FF725E;" d="M675.289,374.555H552.814c-6.488,0-11.748-5.26-11.748-11.748v0
					c0-6.488,5.26-11.748,11.748-11.748h122.475c6.488,0,11.748,5.26,11.748,11.748v0
					C687.036,369.295,681.777,374.555,675.289,374.555z"/>
			</g>
		</g>
		<g>
			<g>
				<path style="fill:#FFFFFF;" d="M591.537,364.454h-3.005l-0.573,1.387h-1.535l2.885-6.473h1.479l2.895,6.473h-1.572
					L591.537,364.454z M591.065,363.317l-1.026-2.479l-1.026,2.479H591.065z"/>
			</g>
			<g>
				<path style="fill:#FFFFFF;" d="M599.971,361.717c0,1.442-1.081,2.34-2.811,2.34h-1.304v1.784h-1.498v-6.473h2.802
					C598.89,359.368,599.971,360.265,599.971,361.717z M598.456,361.717c0-0.712-0.463-1.128-1.378-1.128h-1.221v2.247h1.221
					C597.993,362.836,598.456,362.42,598.456,361.717z"/>
			</g>
			<g>
				<path style="fill:#FFFFFF;" d="M606.65,361.717c0,1.442-1.081,2.34-2.811,2.34h-1.304v1.784h-1.498v-6.473h2.802
					C605.569,359.368,606.65,360.265,606.65,361.717z M605.134,361.717c0-0.712-0.463-1.128-1.378-1.128h-1.221v2.247h1.221
					C604.672,362.836,605.134,362.42,605.134,361.717z"/>
			</g>
			<g>
				<path style="fill:#FFFFFF;" d="M607.716,359.368h1.498v5.252h3.245v1.221h-4.743V359.368z"/>
			</g>
			<g>
				<path style="fill:#FFFFFF;" d="M615.743,363.548v2.293h-1.498v-2.311l-2.506-4.161h1.591l1.729,2.876l1.728-2.876h1.471
					L615.743,363.548z"/>
			</g>
			<g>
				<path style="fill:#FFFFFF;" d="M627.444,359.368v6.473h-1.229l-3.227-3.93v3.93h-1.479v-6.473h1.239l3.218,3.93v-3.93H627.444z"
					/>
			</g>
			<g>
				<path style="fill:#FFFFFF;" d="M628.574,362.605c0-1.924,1.498-3.348,3.542-3.348c2.034,0,3.541,1.415,3.541,3.348
					c0,1.933-1.507,3.348-3.541,3.348C630.072,365.953,628.574,364.528,628.574,362.605z M634.14,362.605
					c0-1.229-0.869-2.071-2.024-2.071c-1.156,0-2.025,0.842-2.025,2.071s0.869,2.071,2.025,2.071
					C633.271,364.676,634.14,363.834,634.14,362.605z"/>
			</g>
			<g>
				<path style="fill:#FFFFFF;" d="M646.358,359.368l-2.118,6.473h-1.608l-1.424-4.383l-1.471,4.383h-1.6l-2.127-6.473h1.554
					l1.461,4.549l1.525-4.549h1.388l1.479,4.586l1.507-4.586H646.358z"/>
			</g>
		</g>
	</g>
	<g>
		<g>
			<g>
				<g>
					<rect x="54.441" y="217.934" style="fill:#FAFAFA;" width="132.708" height="74.205"/>
				</g>
			</g>
			<g>
				<g>
					<g>
						<path style="fill:#263238;" d="M187.149,292.139c0,0-0.014-0.461-0.021-1.338c-0.005-0.887-0.012-2.184-0.022-3.881
							c-0.012-3.41-0.029-8.413-0.05-14.839c-0.025-12.846-0.061-31.372-0.106-54.147l0.199,0.199
							c-35.403,0.016-81.915,0.038-132.698,0.061h-0.01l0.26-0.26c-0.006,26.24-0.012,51.337-0.017,74.205l-0.243-0.243
							c38.829,0.048,71.973,0.089,95.424,0.118c11.734,0.028,21.041,0.051,27.427,0.066c3.187,0.013,5.642,0.023,7.315,0.03
							c0.826,0.006,1.455,0.011,1.891,0.015C186.925,292.129,187.149,292.139,187.149,292.139s-0.205,0.01-0.622,0.015
							c-0.43,0.003-1.05,0.008-1.864,0.015c-1.661,0.007-4.1,0.017-7.266,0.03c-6.373,0.015-15.661,0.038-27.372,0.066
							c-23.491,0.029-56.691,0.07-95.585,0.118l-0.243,0l0-0.243c-0.005-22.868-0.011-47.965-0.017-74.205v-0.26h0.261h0.01
							c50.783,0.023,97.295,0.045,132.698,0.061l0.2,0l0,0.199c-0.045,22.826-0.081,41.394-0.106,54.269
							c-0.022,6.407-0.039,11.395-0.05,14.795c-0.01,1.68-0.017,2.966-0.022,3.844C187.163,291.706,187.149,292.139,187.149,292.139
							z"/>
					</g>
				</g>
			</g>
		</g>
		<g>
			<g>
				<rect x="70.659" y="235.621" style="fill:#455A64;" width="18.761" height="18.761"/>
			</g>
		</g>
		<g>
			<g>
				<g>
					<path style="fill:#FF725E;" d="M115.188,238.257c0,0.144-4.379,0.26-9.779,0.26c-5.402,0-9.78-0.117-9.78-0.26
						s4.378-0.26,9.78-0.26C110.809,237.996,115.188,238.113,115.188,238.257z"/>
				</g>
			</g>
		</g>
		<g>
			<g>
				<g>
					<path style="fill:#263238;" d="M177.665,245.001c0,0.144-18.366,0.26-41.016,0.26c-22.658,0-41.02-0.117-41.02-0.26
						c0-0.144,18.362-0.26,41.02-0.26C159.299,244.741,177.665,244.857,177.665,245.001z"/>
				</g>
			</g>
		</g>
		<g>
			<g>
				<g>
					<path style="fill:#263238;" d="M150.064,252.568c0,0.144-12.068,0.261-26.951,0.261c-14.888,0-26.953-0.117-26.953-0.261
						c0-0.144,12.065-0.26,26.953-0.26C137.996,252.308,150.064,252.424,150.064,252.568z"/>
				</g>
			</g>
		</g>
		<g>
			<g>
				<path style="fill:#FF725E;" d="M167.503,282.304H76.851c-4.802,0-8.695-3.893-8.695-8.695v0c0-4.802,3.893-8.695,8.695-8.695
					h90.652c4.802,0,8.695,3.893,8.695,8.695v0C176.198,278.411,172.305,282.304,167.503,282.304z"/>
			</g>
		</g>
		<g>
			<g>
				<path style="fill:#FFFFFF;" d="M105.516,274.828h-2.227l-0.425,1.027h-1.137l2.137-4.796h1.096l2.145,4.796h-1.164
					L105.516,274.828z M105.167,273.985l-0.76-1.836l-0.761,1.836H105.167z"/>
			</g>
			<g>
				<path style="fill:#FFFFFF;" d="M111.761,272.799c0,1.068-0.802,1.733-2.083,1.733h-0.966v1.322h-1.11v-4.796h2.076
					C110.959,271.059,111.761,271.724,111.761,272.799z M110.637,272.799c0-0.527-0.342-0.836-1.021-0.836h-0.904v1.665h0.904
					C110.295,273.629,110.637,273.32,110.637,272.799z"/>
			</g>
			<g>
				<path style="fill:#FFFFFF;" d="M116.704,272.799c0,1.068-0.802,1.733-2.083,1.733h-0.966v1.322h-1.11v-4.796h2.076
					C115.903,271.059,116.704,271.724,116.704,272.799z M115.58,272.799c0-0.527-0.342-0.836-1.021-0.836h-0.904v1.665h0.904
					C115.238,273.629,115.58,273.32,115.58,272.799z"/>
			</g>
			<g>
				<path style="fill:#FFFFFF;" d="M117.489,271.059h1.11v3.892h2.405v0.904h-3.515V271.059z"/>
			</g>
			<g>
				<path style="fill:#FFFFFF;" d="M123.432,274.156v1.699h-1.11v-1.713l-1.856-3.083h1.178l1.281,2.131l1.281-2.131h1.089
					L123.432,274.156z"/>
			</g>
			<g>
				<path style="fill:#FFFFFF;" d="M132.094,271.059v4.796h-0.912l-2.391-2.912v2.912h-1.096v-4.796h0.918l2.384,2.912v-2.912
					H132.094z"/>
			</g>
			<g>
				<path style="fill:#FFFFFF;" d="M132.926,273.458c0-1.426,1.11-2.48,2.624-2.48c1.507,0,2.624,1.048,2.624,2.48
					c0,1.432-1.117,2.479-2.624,2.479C134.036,275.937,132.926,274.882,132.926,273.458z M137.051,273.458
					c0-0.912-0.644-1.535-1.5-1.535c-0.856,0-1.5,0.623-1.5,1.535c0,0.911,0.644,1.534,1.5,1.534
					C136.407,274.992,137.051,274.369,137.051,273.458z"/>
			</g>
			<g>
				<path style="fill:#FFFFFF;" d="M146.097,271.059l-1.569,4.796h-1.192l-1.055-3.247l-1.089,3.247h-1.185l-1.576-4.796h1.151
					l1.083,3.371l1.13-3.371h1.028l1.096,3.398l1.117-3.398H146.097z"/>
			</g>
		</g>
	</g>
	<g>
		<g>
			<g>
				<g>
					<rect x="524.522" y="88.299" style="fill:#FAFAFA;" width="145.595" height="81.411"/>
				</g>
			</g>
			<g>
				<g>
					<g>
						<path style="fill:#263238;" d="M670.117,169.71c0,0-0.014-0.504-0.021-1.466c-0.005-0.97-0.012-2.394-0.022-4.256
							c-0.012-3.738-0.028-9.227-0.05-16.278c-0.025-14.093-0.061-34.421-0.106-59.411l0.199,0.199
							c-38.84,0.016-89.869,0.038-145.584,0.061h-0.011l0.26-0.26c-0.006,28.788-0.012,56.323-0.017,81.411l-0.243-0.243
							c42.604,0.048,78.97,0.089,104.698,0.118c12.874,0.028,23.084,0.051,30.088,0.066c3.497,0.013,6.191,0.023,8.023,0.03
							c0.906,0.006,1.598,0.011,2.074,0.015C669.872,169.7,670.117,169.71,670.117,169.71s-0.226,0.01-0.684,0.015
							c-0.47,0.003-1.152,0.008-2.046,0.015c-1.821,0.007-4.498,0.017-7.974,0.03c-6.991,0.015-17.182,0.038-30.032,0.066
							c-25.768,0.029-62.19,0.07-104.86,0.118l-0.243,0l0-0.243c-0.005-25.088-0.011-52.623-0.017-81.411l0-0.261h0.26h0.011
							c55.716,0.024,106.744,0.045,145.584,0.061l0.2,0l0,0.199c-0.045,25.042-0.081,45.411-0.106,59.533
							c-0.022,7.032-0.039,12.506-0.05,16.234c-0.01,1.846-0.017,3.257-0.022,4.219C670.131,169.234,670.117,169.71,670.117,169.71z
							"/>
					</g>
				</g>
			</g>
		</g>
		<g>
			<g>
				<rect x="542.315" y="107.703" style="fill:#455A64;" width="20.583" height="20.583"/>
			</g>
		</g>
		<g>
			<g>
				<g>
					<path style="fill:#FF725E;" d="M591.167,110.595c0,0.144-4.804,0.26-10.729,0.26c-5.927,0-10.73-0.117-10.73-0.26
						c0-0.144,4.803-0.26,10.73-0.26C586.363,110.335,591.167,110.451,591.167,110.595z"/>
				</g>
			</g>
		</g>
		<g>
			<g>
				<g>
					<path style="fill:#263238;" d="M659.712,117.995c0,0.144-20.149,0.26-44.999,0.26c-24.858,0-45.004-0.116-45.004-0.26
						c0-0.144,20.145-0.26,45.004-0.26C639.562,117.734,659.712,117.851,659.712,117.995z"/>
				</g>
			</g>
		</g>
		<g>
			<g>
				<g>
					<path style="fill:#263238;" d="M629.43,126.296c0,0.144-13.24,0.26-29.568,0.26c-16.334,0-29.571-0.117-29.571-0.26
						c0-0.144,13.237-0.26,29.571-0.26C616.19,126.036,629.43,126.152,629.43,126.296z"/>
				</g>
			</g>
		</g>
		<g>
			<g>
				<path style="fill:#FF725E;" d="M648.563,158.92h-99.455c-5.269,0-9.54-4.271-9.54-9.54l0,0c0-5.269,4.271-9.54,9.54-9.54h99.455
					c5.269,0,9.54,4.271,9.54,9.54l0,0C658.103,154.649,653.832,158.92,648.563,158.92z"/>
			</g>
		</g>
		<g>
			<g>
				<path style="fill:#FFFFFF;" d="M580.551,150.718h-2.439l-0.466,1.126H576.4l2.342-5.255h1.201l2.351,5.255h-1.276
					L580.551,150.718z M580.169,149.794l-0.833-2.012l-0.834,2.012H580.169z"/>
			</g>
			<g>
				<path style="fill:#FFFFFF;" d="M587.401,148.495c0,1.171-0.878,1.899-2.282,1.899h-1.059v1.449h-1.216v-5.255h2.274
					C586.523,146.589,587.401,147.317,587.401,148.495z M586.17,148.495c0-0.578-0.376-0.916-1.119-0.916h-0.991v1.824h0.991
					C585.795,149.404,586.17,149.066,586.17,148.495z"/>
			</g>
			<g>
				<path style="fill:#FFFFFF;" d="M592.824,148.495c0,1.171-0.878,1.899-2.282,1.899h-1.059v1.449h-1.216v-5.255h2.274
					C591.946,146.589,592.824,147.317,592.824,148.495z M591.593,148.495c0-0.578-0.376-0.916-1.119-0.916h-0.991v1.824h0.991
					C591.217,149.404,591.593,149.066,591.593,148.495z"/>
			</g>
			<g>
				<path style="fill:#FFFFFF;" d="M593.69,146.589h1.216v4.264h2.636v0.991h-3.852V146.589z"/>
			</g>
			<g>
				<path style="fill:#FFFFFF;" d="M600.209,149.982v1.862h-1.216v-1.877l-2.035-3.378h1.292l1.403,2.335l1.404-2.335h1.193
					L600.209,149.982z"/>
			</g>
			<g>
				<path style="fill:#FFFFFF;" d="M609.709,146.589v5.255h-0.998l-2.62-3.19v3.19h-1.201v-5.255h1.006l2.612,3.19v-3.19H609.709z"
					/>
			</g>
			<g>
				<path style="fill:#FFFFFF;" d="M610.629,149.216c0-1.561,1.216-2.718,2.875-2.718c1.651,0,2.875,1.148,2.875,2.718
					c0,1.569-1.224,2.717-2.875,2.717C611.844,151.933,610.629,150.778,610.629,149.216z M615.148,149.216
					c0-0.998-0.706-1.682-1.644-1.682c-0.939,0-1.644,0.683-1.644,1.682c0,0.999,0.705,1.682,1.644,1.682
					C614.442,150.898,615.148,150.215,615.148,149.216z"/>
			</g>
			<g>
				<path style="fill:#FFFFFF;" d="M625.067,146.589l-1.719,5.255h-1.307l-1.156-3.559l-1.193,3.559h-1.299l-1.727-5.255h1.262
					l1.185,3.693l1.239-3.693h1.126l1.201,3.724l1.224-3.724H625.067z"/>
			</g>
		</g>
	</g>
</g>
</svg>
